<svg width="80" height="80" viewBox="0 0 80 80" fill="none" xmlns="http://www.w3.org/2000/svg">
<g clip-path="url(#clip0_205_711)">
<path d="M0 68.5938C0.417188 67.9594 1.02344 67.825 1.74844 67.8297C5.00312 67.8547 8.25781 67.8407 11.5125 67.8407H12.4859C12.4859 66.5751 12.4688 65.361 12.4859 64.1469C12.5266 61.6297 13.4031 59.4204 15.0172 57.5016C16.3406 55.9266 18.0172 54.8735 19.9609 54.2204C20.8984 53.9079 21.8141 53.5766 22.825 53.2251C21.4578 52.0313 20.4688 50.6704 20.125 48.9532C19.7 46.8407 19.6562 44.6938 20.1953 42.6047C21.1547 38.9126 24.8203 36.5376 28.6703 37.0032C30.5086 37.2265 32.2058 38.102 33.4534 39.4706C34.7009 40.8391 35.416 42.6099 35.4688 44.461C35.5 45.7344 35.5391 47.0219 35.3891 48.2813C35.1563 50.2422 34.1484 51.8391 32.5766 53.2188C33.7266 53.6266 34.7922 53.9829 35.8422 54.3797C39.3203 55.6969 41.6109 58.1438 42.5453 61.7422C42.8484 62.9079 42.8438 64.1579 42.9266 65.3735C42.9797 66.1547 42.9375 66.936 42.9375 67.7704C43.1444 67.8042 43.3531 67.8266 43.5625 67.8376C46.0625 67.8376 48.5625 67.8547 51.0625 67.8235C51.4069 67.8102 51.7333 67.666 51.975 67.4204C53.2869 65.856 55.0093 64.6888 56.9484 64.0501C57.9 63.7297 58.8453 63.386 60.0734 62.9563C59.7188 62.7282 59.4969 62.6329 59.3375 62.4751C57.9156 61.0688 57.05 59.3657 57.0094 57.3485C56.9797 55.8454 56.9125 54.3016 57.1984 52.8407C57.9531 48.9829 61.5156 46.4344 65.4531 46.736C67.3001 46.8906 69.0301 47.7037 70.3278 49.027C71.6256 50.3502 72.4048 52.0957 72.5234 53.9454C72.6278 55.3988 72.5959 56.8588 72.4281 58.3063C72.1875 60.1735 71.1609 61.6876 69.6547 63.0079C70.55 63.3204 71.3375 63.6235 72.1359 63.886C76.4859 65.3094 79.1312 68.2157 79.8953 72.7688C79.9202 72.8403 79.9554 72.9077 80 72.9688V80.0001H0V68.5938ZM50.1266 70.2782H2.40781V77.5907H49.5437C49.5437 76.3172 49.4688 75.0907 49.5656 73.8797C49.6625 72.6688 49.9312 71.4876 50.1266 70.2782ZM77.6266 77.6219C77.6266 76.2422 77.7078 74.9391 77.6109 73.65C77.4016 70.8844 76.1875 68.55 73.7453 67.2438C71.7063 66.15 69.4125 65.536 67.2297 64.7157C67.1014 64.6925 66.9705 64.6867 66.8406 64.6985C63.9547 64.5063 61.1406 64.761 58.4859 66.0297C58.3179 66.0996 58.1457 66.1591 57.9703 66.2079C52.0938 68.2126 51.4891 73.0079 52.0328 77.6219H77.6266ZM14.9 67.7782H40.4859C41.225 60.9126 38.5594 57.3094 33.5437 56.2047C32.0052 58.8756 30.462 61.5506 28.9141 64.2297C28.175 65.5079 27.1953 65.5001 26.4563 64.211C25.0365 61.7589 23.6214 59.3047 22.2109 56.8485C22.0719 56.6063 21.9281 56.3688 21.7797 56.1172C21.3 56.2735 20.8797 56.4094 20.4672 56.5626C17.2891 57.7532 15.3734 60.0266 14.925 63.3844C14.7344 64.8094 14.8937 66.2813 14.8937 67.7766L14.9 67.7782ZM33.2016 45.9032H33.1328C33.1328 45.461 33.1422 45.0188 33.1328 44.5782C33.0563 41.7172 30.8078 39.4532 27.9 39.3063C25.1344 39.1657 22.625 41.2422 22.3422 44.0282C22.2148 45.2948 22.2148 46.571 22.3422 47.8376C22.5969 50.3813 24.7922 52.3891 27.3016 52.5157C30.0344 52.6532 32.3969 50.9532 32.9609 48.3829C33.1328 47.5782 33.125 46.7329 33.1953 45.9079L33.2016 45.9032ZM70.2609 55.7282H70.1953C70.1953 55.2344 70.2156 54.7391 70.1953 54.2469C70.1346 52.9364 69.6014 51.6921 68.6943 50.7442C67.7872 49.7963 66.5676 49.209 65.2609 49.0907C62.6281 48.8344 60.0891 50.5907 59.5422 53.236C59.2922 54.4391 59.35 55.7172 59.3672 56.9594C59.3764 58.313 59.8923 59.6139 60.8132 60.6059C61.734 61.598 62.9931 62.2091 64.3422 62.3188C66.9828 62.5672 69.4984 60.7329 70.0766 58.061C70.2297 57.3047 70.1969 56.5094 70.2547 55.7329L70.2609 55.7282ZM31.2922 55.3704C29.95 54.7063 25.3313 54.7251 24.1047 55.3844L27.6984 61.6047L31.2922 55.3704Z" fill="black"/>
<path d="M0 15.1562C0.414063 14.7234 0.815625 14.2688 1.51875 14.4984C2.17031 14.7125 2.3625 15.1969 2.36094 15.8312C2.35365 18.3833 2.35365 20.9354 2.36094 23.4875C2.36094 26.8906 4.52031 29.0406 7.92656 29.0453C8.81094 29.0453 9.69688 29.0719 10.5828 29.0375C10.8667 29.0206 11.1507 29.0681 11.4137 29.1763C11.6766 29.2845 11.9118 29.4507 12.1016 29.6625C13.8547 31.4453 15.6313 33.2016 17.4016 34.9656C17.465 35.0169 17.5318 35.0639 17.6016 35.1062C17.6345 34.9076 17.6564 34.7073 17.6672 34.5062C17.6672 33.2047 17.6672 31.9031 17.6672 30.6C17.6672 29.4391 18.0547 29.0469 19.2031 29.0375C22.9 29.0375 26.5979 29.0375 30.2969 29.0375H31.25V28.1562C31.25 24.2271 31.25 20.2964 31.25 16.3641C31.2578 11.7484 34.4172 8.56563 39.0359 8.52969C41.1703 8.5125 43.3047 8.52969 45.4422 8.52969H46.2719C46.9813 5.5375 44.6422 2.55937 41.5 2.37344C41.2141 2.35625 40.9281 2.36094 40.6406 2.36094H8.14844C4.42031 2.36094 2.35781 4.42656 2.35781 8.16094C2.35781 8.68125 2.33906 9.20312 2.35781 9.72344C2.3875 10.4031 2.25469 11.0016 1.53281 11.2281C0.810938 11.4547 0.351562 11.0516 0 10.4688V6.40625C0.05625 6.24063 0.126563 6.07813 0.167188 5.90781C0.603125 4.0625 1.51562 2.49062 3.11094 1.475C4.11562 0.835937 5.30156 0.48125 6.40625 0H42.3438C43.3875 0.434375 44.5313 0.725 45.4563 1.33281C47.5719 2.71719 48.6391 4.77031 48.7469 7.30937C48.7609 7.67187 48.7469 8.03438 48.7469 8.48281C49.0594 8.49844 49.3391 8.52344 49.6141 8.52344C51.3062 8.52344 52.9984 8.52344 54.6906 8.52344C55.6281 8.52344 56.1156 8.95313 56.1094 9.70781C56.1031 10.4625 55.6016 10.8875 54.6734 10.8875C49.5172 10.8875 44.3609 10.8875 39.2047 10.9047C38.4788 10.8912 37.7551 10.9871 37.0578 11.1891C36.0459 11.5182 35.1653 12.1617 34.5443 13.0258C33.9232 13.8899 33.5941 14.9297 33.6047 15.9938C33.5828 21.4594 33.5828 26.9281 33.6047 32.4C33.6172 35.2875 35.8078 37.4922 38.6969 37.5281C41.7422 37.5672 44.7906 37.5516 47.8344 37.5281C48.1571 37.5151 48.4788 37.5727 48.777 37.6968C49.0752 37.821 49.3428 38.0087 49.5609 38.2469C51.1422 39.8687 52.7547 41.4578 54.3578 43.0578C54.5344 43.2344 54.7219 43.3969 55.0031 43.6578C55.0266 43.2797 55.0531 43.0328 55.0531 42.7875C55.0531 41.6937 55.0531 40.6 55.0531 39.5062C55.0531 37.8125 55.3234 37.5359 56.9859 37.5359H67.7672C69.2766 37.5359 70.7859 37.5453 72.2984 37.5359C75.4656 37.5109 77.6281 35.3484 77.6344 32.1656C77.6458 26.8531 77.6458 21.5406 77.6344 16.2281C77.6266 13.1031 75.4703 10.9156 72.3375 10.8984C68.5641 10.8734 64.7891 10.8984 61.0141 10.8875C60.7034 10.8997 60.3927 10.8655 60.0922 10.7859C59.5203 10.6047 59.275 10.1609 59.3281 9.57656C59.334 9.3252 59.4305 9.08443 59.6 8.89864C59.7694 8.71286 60.0002 8.59458 60.25 8.56562C60.5337 8.52675 60.8201 8.51211 61.1062 8.52188C64.6719 8.52188 68.238 8.52188 71.8047 8.52188C76.2312 8.52188 78.8359 10.5687 79.9062 14.8703C79.9187 14.9172 79.9656 14.9547 79.9953 14.9953V33.4375C79.8141 34.0281 79.6719 34.6359 79.4453 35.2094C78.2875 38.1266 75.6016 39.8969 72.2734 39.9078C67.6656 39.925 63.0547 39.9078 58.4484 39.9078H57.4406V40.8453C57.4406 42.5906 57.4406 44.3344 57.4406 46.0781C57.4406 46.7516 57.4203 47.4078 56.6703 47.7141C55.9484 48.0094 55.4969 47.5578 55.0453 47.1063C52.8203 44.875 50.6047 42.6359 48.3484 40.4359C48.0156 40.1347 47.589 39.9575 47.1406 39.9344C44.5375 39.8906 41.9297 39.8328 39.3281 39.9344C34.275 40.1219 30.9609 36.1031 31.2344 31.9156C31.2344 31.7875 31.2234 31.6578 31.2141 31.4687H20.0266C20.0266 33.4141 20.0266 35.3328 20.0266 37.25C20.0266 37.9625 20.2156 38.7828 19.3547 39.1656C18.4656 39.5609 17.9672 38.8906 17.4344 38.3547C15.3344 36.25 13.2219 34.1656 11.1453 32.0438C10.9509 31.8235 10.7097 31.6495 10.4393 31.5346C10.169 31.4197 9.8763 31.3668 9.58281 31.3797C8.33281 31.3797 7.05312 31.45 5.85625 31.1797C2.825 30.4906 0.953125 28.5094 0.16875 25.4984C0.125 25.3297 0.05625 25.1656 0 25V15.1562Z" fill="black"/>
</g>
<defs>
<clipPath id="clip0_205_711">
<rect width="80" height="80" fill="white"/>
</clipPath>
</defs>
</svg>
