<svg width="80" height="80" viewBox="0 0 80 80" fill="none" xmlns="http://www.w3.org/2000/svg">
<path d="M0 9.71821C0.152206 9.30178 0.32783 8.89465 0.525999 8.49883C1.34005 7.05812 2.55903 6.24732 4.208 6.21115C5.53344 6.18348 6.85678 6.21115 8.31998 6.21115C8.31998 5.57272 8.29702 4.96622 8.31998 4.37249C8.42017 2.07843 9.98982 0.299354 12.1523 0.0312171C14.2208 -0.22628 16.2893 1.13356 16.7903 3.21056C17.0157 4.14478 16.999 5.14285 17.0846 6.16007H20.7833C20.7833 5.52165 20.7687 4.91728 20.7833 4.31503C20.8112 3.17354 21.271 2.0873 22.0667 1.28367C22.8623 0.480043 23.932 0.021331 25.0518 0.0035519C26.1707 -0.0140648 27.252 0.414579 28.0654 1.19811C28.8788 1.98165 29.3598 3.05809 29.4059 4.19799C29.4372 4.83641 29.4059 5.46206 29.4059 6.1473H50.569C50.569 5.58336 50.569 5.03219 50.569 4.48315C50.6275 1.91031 52.4768 -0.00283248 54.8918 0.0141921C57.3069 0.0312167 59.1896 1.99543 59.2084 4.59381C59.2084 5.09391 59.2084 5.59613 59.2084 6.15582H62.9927C62.9927 5.63444 62.9927 5.11519 62.9927 4.59594C63.0365 1.97415 64.8838 0.0205763 67.3196 0.0141921C69.7555 0.00780789 71.6174 1.95287 71.6696 4.5704C71.6821 5.09178 71.6696 5.61528 71.6696 6.21327C72.9846 6.21327 74.2015 6.21327 75.4267 6.21327C78.1861 6.2154 80 8.04767 80 10.8269C80 32.3333 80 53.8382 80 75.3416C80 78.089 78.1799 79.9553 75.504 79.966C72.7445 79.9745 69.9844 79.9745 67.2236 79.966C66.18 79.966 65.535 79.0488 66.0652 78.2316C66.2138 78.0475 66.3984 77.897 66.6072 77.7897C66.816 77.6823 67.0444 77.6205 67.2779 77.608C69.9601 77.5527 72.6423 77.5825 75.3244 77.5783C76.9171 77.5783 77.6581 76.8207 77.6581 75.1906C77.6581 58.2539 77.6581 41.3159 77.6581 24.3764V23.5252H17.0407C16.7288 23.5369 16.4165 23.5284 16.1056 23.4996C15.4252 23.4124 14.991 22.908 15.062 22.2568C15.1329 21.6056 15.4648 21.1736 16.162 21.1481C16.473 21.1353 16.7882 21.1375 17.0992 21.1375H77.5996C77.6205 20.8459 77.6497 20.6182 77.6497 20.3905C77.6497 17.2296 77.6497 14.0701 77.6497 10.9121C77.6497 9.36921 76.9045 8.60523 75.41 8.59459C74.1931 8.59459 72.9762 8.59459 71.6779 8.59459C71.6779 9.23301 71.6884 9.7778 71.6779 10.3268C71.6216 12.9422 69.7722 14.8575 67.3113 14.8575C64.8963 14.8447 63.0616 12.9295 63.0031 10.3524C62.9885 9.79908 63.0031 9.24791 63.0031 8.64992H59.2147C59.2147 9.23727 59.2147 9.81398 59.2147 10.3886C59.1813 12.9061 57.357 14.8235 54.9628 14.8575C52.5144 14.8937 50.6505 13.0274 50.5795 10.4567C50.5628 9.87569 50.5795 9.29685 50.5795 8.65843H29.4247C29.4247 9.19683 29.4247 9.74588 29.4247 10.2949C29.3809 12.9827 27.5461 14.8916 25.0414 14.8575C22.5909 14.8235 20.7979 12.8763 20.7853 10.2311C20.7853 9.72885 20.7853 9.22663 20.7853 8.66056H16.9906C16.9906 9.26068 17.0157 9.88633 16.9906 10.5077C16.8904 12.7741 15.2957 14.6 13.2335 14.8277C11.0356 15.0703 9.03175 13.7743 8.51828 11.6654C8.28659 10.7056 8.30955 9.67991 8.22605 8.62225C6.81295 8.62225 5.38524 8.56905 3.96587 8.64141C3.09756 8.68822 2.37326 9.51392 2.367 10.4311C2.33569 13.9616 2.35448 17.4899 2.35448 21.1396H3.21444C5.11597 21.1396 7.01751 21.1396 8.91695 21.1396C9.75187 21.1396 10.2069 21.5482 10.234 22.2696C10.2612 22.991 9.79362 23.5081 8.93574 23.5145C6.77538 23.5358 4.61502 23.5145 2.34404 23.5145V75.0693C2.34404 76.8611 3.04328 77.5783 4.79453 77.5783H59.3211C60.6361 77.5783 61.1183 77.9038 61.112 78.7849C61.1058 79.6659 60.6236 79.9681 59.2981 79.9681C41.3474 79.9681 23.4153 79.9383 5.4729 80C2.78028 80 0.880841 79.1488 0 76.4631V9.71821ZM14.6529 7.43053C14.6529 6.52823 14.6529 5.62805 14.6529 4.72575C14.6341 3.3042 13.8284 2.38487 12.6344 2.39763C11.4405 2.4104 10.6765 3.31484 10.664 4.6917C10.6487 6.52185 10.6487 8.35199 10.664 10.1821C10.6765 11.5718 11.4551 12.4485 12.6407 12.457C13.8263 12.4656 14.6236 11.6058 14.6508 10.2162C14.6675 9.28834 14.6529 8.35837 14.6529 7.43053ZM65.343 7.43053C65.343 8.35837 65.3284 9.28621 65.343 10.2141C65.3701 11.593 66.1654 12.4592 67.3593 12.4485C68.5178 12.4358 69.3109 11.5781 69.3276 10.246C69.3513 8.36192 69.3513 6.47857 69.3276 4.59594C69.313 3.28079 68.4927 2.39764 67.353 2.38912C66.2134 2.38061 65.3701 3.28292 65.3451 4.64488C65.3304 5.58124 65.343 6.5112 65.343 7.43904V7.43053ZM23.1231 7.41564C23.1231 8.37114 23.1231 9.3309 23.1231 10.28C23.1398 11.5803 23.958 12.4528 25.1123 12.4485C26.2666 12.4443 27.0514 11.6186 27.0681 10.3375C27.0932 8.40235 27.0932 6.46651 27.0681 4.52997C27.0514 3.2361 26.1935 2.3572 25.0518 2.387C23.91 2.41679 23.1419 3.29994 23.1231 4.55125C23.1127 5.51526 23.1252 6.46864 23.1231 7.42415V7.41564ZM56.8727 7.43904C56.8727 6.48354 56.8831 5.52378 56.8727 4.57466C56.856 3.28079 56.0378 2.38487 54.8877 2.387C53.7376 2.38912 52.9444 3.23823 52.9277 4.51507C52.9026 6.4502 52.9026 8.38533 52.9277 10.3205C52.9444 11.642 53.7626 12.4783 54.9419 12.4485C56.0649 12.4273 56.856 11.5611 56.8748 10.3013C56.8831 9.35644 56.8727 8.40093 56.8727 7.44756V7.43904Z" fill="#333333"/>
<path d="M22.4532 60.2623C21.6079 60.2661 20.7805 60.0142 20.0756 59.5384C19.3708 59.0626 18.8202 58.3844 18.4936 57.5895C18.167 56.7946 18.0789 55.9187 18.2407 55.0728C18.4024 54.2269 18.8066 53.4489 19.4021 52.8373C19.9977 52.2256 20.7578 51.8078 21.5863 51.6367C22.4148 51.4657 23.2745 51.549 24.0565 51.8762C24.8385 52.2033 25.5078 52.7597 25.9796 53.4748C26.4515 54.1899 26.7047 55.0316 26.7071 55.8934C26.7099 57.0475 26.2636 58.1555 25.4662 58.9746C24.6687 59.7936 23.5852 60.2567 22.4532 60.2623ZM22.3906 53.9483C22.0114 53.9585 21.6435 54.0828 21.3334 54.3056C21.0233 54.5284 20.7848 54.8398 20.648 55.2006C20.5111 55.5613 20.482 55.9553 20.5643 56.3329C20.6466 56.7104 20.8367 57.0547 21.1105 57.3224C21.3844 57.5901 21.7298 57.7692 22.1033 57.8371C22.4768 57.9051 22.8616 57.8588 23.2094 57.7042C23.5571 57.5496 23.8522 57.2935 24.0575 56.9683C24.2628 56.643 24.3691 56.2631 24.3631 55.8764C24.351 55.3545 24.1368 54.8586 23.7671 54.4973C23.3975 54.136 22.9026 53.9386 22.3906 53.9483Z" fill="#333333"/>
<path d="M10.8664 60.2642C10.0208 60.2659 9.19377 60.0119 8.48983 59.5343C7.78588 59.0567 7.23667 58.377 6.91165 57.5811C6.58664 56.7853 6.50043 55.909 6.66392 55.0632C6.82742 54.2174 7.23327 53.44 7.83015 52.8294C8.42703 52.2188 9.18812 51.8023 10.0172 51.6328C10.8462 51.4632 11.706 51.5481 12.4877 51.8767C13.2694 52.2054 13.9379 52.763 14.4088 53.479C14.8796 54.1951 15.1316 55.0374 15.1328 55.8995C15.1356 56.4722 15.0272 57.0398 14.814 57.5697C14.6007 58.0995 14.2868 58.5811 13.8903 58.9868C13.4937 59.3925 13.0224 59.7142 12.5035 59.9334C11.9845 60.1526 11.4281 60.265 10.8664 60.2642ZM10.8142 53.9481C10.5566 53.9431 10.3006 53.991 10.0614 54.0889C9.82223 54.1867 9.60478 54.3325 9.42194 54.5177C9.2391 54.7028 9.09459 54.9235 8.99699 55.1667C8.89939 55.4098 8.85068 55.6705 8.85375 55.9332C8.85683 56.1959 8.91163 56.4554 9.01489 56.6961C9.11816 56.9368 9.26779 57.1539 9.45492 57.3345C9.64204 57.5152 9.86285 57.6557 10.1042 57.7477C10.3456 57.8397 10.6027 57.8813 10.8601 57.8701C11.1178 57.875 11.3738 57.8272 11.6129 57.7293C11.8521 57.6315 12.0696 57.4856 12.2524 57.3005C12.4352 57.1154 12.5797 56.8947 12.6774 56.6515C12.775 56.4083 12.8237 56.1477 12.8206 55.8849C12.8175 55.6222 12.7627 55.3628 12.6594 55.1221C12.5562 54.8814 12.4065 54.6643 12.2194 54.4836C12.0323 54.303 11.8115 54.1625 11.5701 54.0705C11.3287 53.9785 11.0717 53.9369 10.8142 53.9481Z" fill="#333333"/>
<path d="M61.4232 33.3334C61.4252 34.1978 61.1754 35.0433 60.7053 35.7627C60.2353 36.482 59.5663 37.0428 58.7831 37.3739C57.9999 37.7049 57.138 37.7914 56.3066 37.6221C55.4752 37.4529 54.7118 37.0357 54.1133 36.4235C53.5149 35.8113 53.1083 35.0315 52.9452 34.1833C52.7821 33.3351 52.8698 32.4566 53.1972 31.6593C53.5246 30.862 54.0769 30.1818 54.7841 29.705C55.4913 29.2283 56.3214 28.9765 57.1692 28.9815C57.7296 28.9795 58.2849 29.0909 58.8028 29.309C59.3208 29.5272 59.7911 29.848 60.1867 30.2527C60.5823 30.6574 60.8953 31.138 61.1075 31.6668C61.3197 32.1956 61.427 32.7621 61.4232 33.3334ZM59.0749 33.3696C59.0828 33.111 59.0397 32.8535 58.9482 32.6122C58.8568 32.3709 58.7189 32.1507 58.5426 31.9646C58.3663 31.7786 58.1553 31.6304 57.9219 31.5289C57.6885 31.4273 57.4376 31.3745 57.1839 31.3735C56.9303 31.3675 56.6781 31.4129 56.4418 31.5069C56.2055 31.6009 55.9898 31.7417 55.8072 31.9212C55.6246 32.1006 55.4786 32.3152 55.3778 32.5525C55.2769 32.7898 55.2232 33.0451 55.2197 33.3036C55.2167 33.8261 55.4137 34.3292 55.7688 34.7059C56.1238 35.0827 56.6091 35.3033 57.1212 35.3211C57.6347 35.3267 58.1294 35.1248 58.4971 34.7595C58.8648 34.3941 59.0756 33.8952 59.0833 33.3717L59.0749 33.3696Z" fill="#333333"/>
<path d="M18.1303 44.5546C18.1423 43.692 18.4042 42.8523 18.8831 42.1411C19.362 41.4299 20.0365 40.8791 20.8217 40.5578C21.607 40.2365 22.4679 40.1591 23.2961 40.3354C24.1244 40.5118 24.883 40.9339 25.4765 41.5488C26.07 42.1636 26.4719 42.9437 26.6316 43.7908C26.7913 44.6379 26.7017 45.5143 26.3741 46.3097C26.0465 47.105 25.4954 47.7838 24.7903 48.2607C24.0852 48.7375 23.2575 48.9911 22.4114 48.9895C21.843 48.9907 21.2801 48.8763 20.7557 48.653C20.2312 48.4297 19.7557 48.1019 19.3571 47.6889C18.9584 47.2759 18.6446 46.786 18.4339 46.2478C18.2233 45.7096 18.1201 45.1339 18.1303 44.5546ZM22.4177 46.5954C22.9299 46.591 23.4201 46.3823 23.7833 46.014C24.1465 45.6457 24.3539 45.147 24.3609 44.6248C24.3609 44.0999 24.1564 43.5965 23.7924 43.2254C23.4283 42.8542 22.9346 42.6457 22.4197 42.6457C21.9049 42.6457 21.4112 42.8542 21.0471 43.2254C20.6831 43.5965 20.4786 44.0999 20.4786 44.6248C20.4845 45.1466 20.691 45.6453 21.0535 46.0137C21.416 46.3821 21.9058 46.591 22.4177 46.5954Z" fill="#333333"/>
<path d="M33.8917 60.2599C33.0468 60.2367 32.2276 59.9585 31.5379 59.4604C30.8482 58.9624 30.3189 58.2668 30.0172 57.4619C29.7154 56.6569 29.6547 55.7788 29.8428 54.9387C30.0308 54.0986 30.4591 53.3342 31.0735 52.7424C31.6879 52.1507 32.4607 51.7581 33.2941 51.6143C34.1274 51.4706 34.9839 51.5822 35.755 51.9351C36.5261 52.2879 37.1772 52.8661 37.6258 53.5965C38.0744 54.3268 38.3003 55.1764 38.275 56.0378C38.2369 57.1882 37.7551 58.2768 36.9345 59.0673C36.1138 59.8578 35.0204 60.2863 33.8917 60.2599ZM33.9689 53.948C33.4591 53.9565 32.9734 54.1711 32.6188 54.5446C32.2641 54.9182 32.0695 55.4201 32.0778 55.9399C32.0861 56.4597 32.2966 56.9548 32.663 57.3164C33.0294 57.678 33.5217 57.8764 34.0316 57.8679C34.5414 57.8594 35.0271 57.6448 35.3817 57.2713C35.7364 56.8977 35.931 56.3958 35.9227 55.876C35.9143 55.3562 35.7038 54.8611 35.3375 54.4995C34.9711 54.1379 34.4788 53.9395 33.9689 53.948Z" fill="#333333"/>
<path d="M22.4218 28.9814C23.2705 28.9827 24.0998 29.241 24.8044 29.7234C25.5091 30.2059 26.0573 30.8908 26.3796 31.6914C26.7019 32.4919 26.7838 33.372 26.6148 34.22C26.4459 35.0681 26.0337 35.8458 25.4306 36.4547C24.8275 37.0637 24.0606 37.4762 23.2272 37.6402C22.3938 37.8041 21.5315 37.7121 20.7494 37.3757C19.9674 37.0392 19.301 36.4736 18.8347 35.7506C18.3684 35.0275 18.1232 34.1795 18.1303 33.3142C18.1402 32.1608 18.5968 31.0582 19.4007 30.2466C20.2045 29.435 21.2905 28.9803 22.4218 28.9814ZM22.3905 31.3734C21.878 31.3818 21.3896 31.5967 21.0321 31.9712C20.6746 32.3456 20.4771 32.8491 20.4827 33.3717C20.4799 33.6365 20.5292 33.8992 20.6277 34.1442C20.7262 34.3893 20.8719 34.6117 21.0562 34.7984C21.2405 34.985 21.4596 35.1321 21.7006 35.231C21.9415 35.3298 22.1995 35.3784 22.4592 35.3738C22.719 35.3693 22.9751 35.3117 23.2127 35.2045C23.4502 35.0972 23.6642 34.9425 23.8421 34.7495C24.0199 34.5565 24.158 34.3291 24.2482 34.0808C24.3384 33.8324 24.3788 33.5681 24.3671 33.3036C24.354 32.7811 24.1389 32.285 23.7686 31.9235C23.3984 31.562 22.903 31.3643 22.3905 31.3734Z" fill="#333333"/>
<path d="M49.8529 33.3972C49.8364 34.551 49.3744 35.6516 48.5671 36.4604C47.7598 37.2691 46.6723 37.7207 45.5406 37.7172C44.409 37.6923 43.3315 37.2188 42.5369 36.3971C41.7422 35.5754 41.293 34.4703 41.2845 33.3164C41.2908 32.7376 41.4094 32.1658 41.6335 31.6339C41.8576 31.1021 42.1828 30.6208 42.5903 30.2178C42.9979 29.8148 43.4796 29.498 44.0078 29.2859C44.536 29.0737 45.1002 28.9702 45.6679 28.9815C46.2275 28.9898 46.78 29.1108 47.2936 29.3374C47.8072 29.5641 48.2718 29.8921 48.6607 30.3024C49.0496 30.7128 49.3552 31.1974 49.5598 31.7285C49.7643 32.2596 49.864 32.8267 49.8529 33.3972ZM45.6032 31.3734C45.0903 31.3655 44.5952 31.565 44.2263 31.9283C43.8574 32.2917 43.6447 32.7893 43.6348 33.3121C43.6399 33.8346 43.8423 34.3349 44.2 34.7091C44.5576 35.0832 45.043 35.3024 45.5552 35.321C46.0678 35.3216 46.56 35.1166 46.9256 34.7503C47.2911 34.384 47.5007 33.8857 47.5089 33.3632C47.5136 33.1045 47.4678 32.8474 47.3743 32.6069C47.2808 32.3664 47.1413 32.1473 46.964 31.9621C46.7867 31.777 46.5751 31.6297 46.3415 31.5286C46.1079 31.4275 45.8569 31.3748 45.6032 31.3734Z" fill="#333333"/>
<path d="M10.8102 40.271C11.6571 40.266 12.4865 40.5174 13.1931 40.9934C13.8997 41.4695 14.4518 42.1487 14.7793 42.945C15.1069 43.7413 15.1951 44.6188 15.033 45.4664C14.8708 46.3139 14.4654 47.0932 13.8683 47.7056C13.2712 48.318 12.5092 48.7358 11.6789 48.9061C10.8486 49.0764 9.98733 48.9916 9.20438 48.6623C8.42142 48.3331 7.75198 47.7742 7.28091 47.0566C6.80984 46.339 6.55836 45.4949 6.55835 44.6314C6.5616 43.4804 7.00982 42.3771 7.80577 41.5608C8.60173 40.7445 9.68125 40.2811 10.8102 40.271ZM10.8352 46.5935C11.3477 46.5897 11.8383 46.3816 12.2023 46.0137C12.5662 45.6459 12.7745 45.1475 12.7827 44.6251C12.7788 44.1028 12.5722 43.6033 12.208 43.236C11.8438 42.8687 11.3517 42.6634 10.8394 42.6651C10.5864 42.6651 10.3359 42.7159 10.1021 42.8146C9.86839 42.9133 9.65601 43.058 9.47711 43.2404C9.29821 43.4228 9.1563 43.6393 9.05948 43.8776C8.96266 44.1159 8.91283 44.3714 8.91283 44.6293C8.91283 44.8872 8.96266 45.1427 9.05948 45.381C9.1563 45.6193 9.29821 45.8358 9.47711 46.0182C9.65601 46.2006 9.86839 46.3453 10.1021 46.444C10.3359 46.5427 10.5864 46.5935 10.8394 46.5935H10.8352Z" fill="#333333"/>
<path d="M34.0314 40.271C34.5934 40.2725 35.1495 40.3868 35.668 40.6075C36.1866 40.8282 36.6575 41.1508 37.0538 41.557C37.45 41.9632 37.764 42.445 37.9776 42.9748C38.1912 43.5047 38.3004 44.0723 38.2989 44.6452C38.2974 45.2181 38.1852 45.7851 37.9688 46.3138C37.7524 46.8425 37.4359 47.3226 37.0375 47.7266C36.6391 48.1306 36.1666 48.4506 35.6468 48.6685C35.1271 48.8863 34.5704 48.9976 34.0085 48.9961C33.4465 48.9945 32.8904 48.8802 32.3719 48.6595C31.8533 48.4388 31.3824 48.1162 30.9861 47.71C30.5899 47.3038 30.276 46.822 30.0623 46.2922C29.8487 45.7623 29.7395 45.1947 29.741 44.6218C29.7425 44.0489 29.8547 43.4819 30.0711 42.9532C30.2875 42.4245 30.604 41.9444 31.0024 41.5404C31.4008 41.1364 31.8733 40.8164 32.3931 40.5986C32.9128 40.3807 33.4695 40.2694 34.0314 40.271ZM34.0314 42.665C33.5194 42.6576 33.0253 42.8567 32.6566 43.2191C32.2879 43.5814 32.0746 44.0775 32.0631 44.5995C32.0657 45.1216 32.268 45.6222 32.6271 45.9946C32.9861 46.367 33.4735 46.5818 33.9855 46.5935C34.498 46.5986 34.9917 46.3966 35.3585 46.0318C35.7254 45.6669 35.9357 45.1688 35.9434 44.6463C35.9476 44.3869 35.9009 44.1293 35.8062 43.8885C35.7114 43.6478 35.5705 43.4287 35.3917 43.2442C35.2128 43.0597 34.9996 42.9134 34.7646 42.8139C34.5296 42.7145 34.2775 42.6639 34.0231 42.665H34.0314Z" fill="#333333"/>
<path d="M10.8268 71.5493C9.71494 71.5162 8.65941 71.0432 7.88368 70.2305C7.10796 69.4177 6.67295 68.3291 6.67078 67.195C6.66861 66.061 7.09945 64.9706 7.87205 64.1548C8.64466 63.339 9.69838 62.8618 10.8101 62.8242C11.3832 62.8049 11.9543 62.9031 12.4894 63.1131C13.0246 63.3231 13.5129 63.6405 13.9254 64.0466C14.338 64.4527 14.6663 64.9391 14.8909 65.477C15.1155 66.0149 15.2318 66.5934 15.2329 67.178C15.234 67.7626 15.1199 68.3415 14.8974 68.8803C14.6748 69.4191 14.3484 69.9069 13.9374 70.3146C13.5265 70.7223 13.0394 71.0417 12.505 71.2538C11.9707 71.4659 11.4 71.5664 10.8268 71.5493ZM10.8268 69.1553C11.3398 69.1609 11.8342 68.9593 12.2019 68.5944C12.5696 68.2296 12.7806 67.7311 12.7888 67.2081C12.7847 66.6855 12.5813 66.185 12.2218 65.8125C11.8622 65.44 11.3747 65.2246 10.8623 65.2119C10.3495 65.2102 9.85689 65.4149 9.49142 65.7815C9.12596 66.1482 8.91723 66.6471 8.91063 67.1698C8.90648 67.4283 8.95271 67.685 9.04662 67.9252C9.14054 68.1654 9.28028 68.3841 9.45773 68.5688C9.63519 68.7535 9.84684 68.9004 10.0804 69.0011C10.314 69.1018 10.5648 69.1542 10.8184 69.1553H10.8268Z" fill="#333333"/>
<path d="M49.8532 44.691C49.8383 45.8445 49.3753 46.9449 48.5657 47.7508C47.756 48.5567 46.6659 49.0022 45.5345 48.9897C44.9726 48.9809 44.4179 48.8594 43.902 48.632C43.3862 48.4046 42.9193 48.0759 42.5281 47.6646C42.1369 47.2532 41.8289 46.7674 41.6219 46.2347C41.4148 45.7021 41.3127 45.133 41.3213 44.5601C41.3299 43.9872 41.4492 43.4217 41.6722 42.8958C41.8952 42.3698 42.2176 41.8939 42.6211 41.495C43.0245 41.0961 43.5011 40.7821 44.0235 40.571C44.546 40.3599 45.1041 40.2558 45.666 40.2646C46.227 40.2715 46.7811 40.3918 47.2962 40.6187C47.8113 40.8455 48.277 41.1743 48.6665 41.5861C49.056 41.9978 49.3614 42.4843 49.5651 43.0173C49.7688 43.5502 49.8667 44.1192 49.8532 44.691ZM47.507 44.6229C47.5107 44.3642 47.4633 44.1074 47.3677 43.8678C47.2721 43.6281 47.1303 43.4105 46.9505 43.2279C46.7708 43.0453 46.5569 42.9013 46.3215 42.8046C46.0862 42.7079 45.8342 42.6605 45.5804 42.6651C45.0683 42.6628 44.5762 42.8676 44.212 43.2346C43.8477 43.6016 43.641 44.1008 43.6372 44.6229C43.6442 45.1451 43.8516 45.6438 44.2148 46.0121C44.578 46.3804 45.0682 46.5891 45.5804 46.5935C45.8342 46.5944 46.0856 46.5439 46.3201 46.4451C46.5547 46.3463 46.7677 46.2011 46.9468 46.0178C47.126 45.8346 47.2677 45.617 47.3639 45.3775C47.46 45.1381 47.5087 44.8816 47.507 44.6229Z" fill="#333333"/>
<path d="M22.4027 71.5492C21.5551 71.5446 20.7279 71.2834 20.0259 70.7989C19.324 70.3144 18.7789 69.6284 18.4598 68.8277C18.1407 68.027 18.0619 67.1478 18.2335 66.3014C18.405 65.4551 18.8191 64.6797 19.4233 64.0735C20.0275 63.4674 20.7946 63.0577 21.6274 62.8965C22.4602 62.7353 23.3212 62.8298 24.1013 63.168C24.8814 63.5063 25.5454 64.073 26.0092 64.7963C26.4731 65.5197 26.7158 66.3672 26.7068 67.2314C26.6952 68.3851 26.2358 69.4871 25.4292 70.2963C24.6226 71.1056 23.5344 71.5561 22.4027 71.5492ZM22.4236 69.1573C22.9361 69.1567 23.4275 68.9494 23.7905 68.5805C24.1534 68.2117 24.3584 67.7113 24.3606 67.1888C24.3606 66.6639 24.1561 66.1605 23.7921 65.7894C23.428 65.4182 22.9343 65.2097 22.4194 65.2097C21.9046 65.2097 21.4109 65.4182 21.0468 65.7894C20.6828 66.1605 20.4783 66.6639 20.4783 67.1888C20.4791 67.4483 20.5301 67.7052 20.6283 67.9446C20.7265 68.184 20.8701 68.4013 21.0508 68.5841C21.2314 68.767 21.4457 68.9117 21.6812 69.01C21.9168 69.1084 22.1691 69.1584 22.4236 69.1573Z" fill="#333333"/>
<path d="M33.9874 71.5516C33.1395 71.549 32.3114 71.2898 31.6082 70.8068C30.9049 70.3237 30.3582 69.6386 30.0374 68.8384C29.7166 68.0382 29.636 67.1588 29.806 66.3119C29.9761 65.4649 30.3889 64.6885 30.9923 64.0811C31.5957 63.4737 32.3624 63.0627 33.1953 62.9001C34.0281 62.7376 34.8895 62.8308 35.6703 63.1681C36.451 63.5053 37.116 64.0714 37.5808 64.7945C38.0456 65.5175 38.2893 66.365 38.281 67.2295C38.2662 68.3807 37.8074 69.4796 37.0038 70.2885C36.2003 71.0974 35.1167 71.5512 33.9874 71.5516ZM34.0188 69.1554C34.2724 69.1546 34.5235 69.1026 34.7574 69.0024C34.9912 68.9022 35.2034 68.7557 35.3815 68.5716C35.5596 68.3874 35.7002 68.1691 35.7952 67.9293C35.8902 67.6894 35.9377 67.4328 35.9349 67.1742C35.9272 66.6513 35.7175 66.1526 35.3513 65.7864C34.9851 65.4203 34.492 65.2162 33.9791 65.2185C33.4683 65.2322 32.9825 65.4471 32.6237 65.818C32.2648 66.189 32.0609 66.6872 32.0546 67.2082C32.0634 67.7315 32.2749 68.2299 32.6429 68.5947C33.0109 68.9595 33.5055 69.1611 34.0188 69.1554Z" fill="#333333"/>
<path d="M68.7598 28.9815C69.3201 28.9798 69.8752 29.0913 70.393 29.3096C70.9108 29.5279 71.3811 29.8486 71.7766 30.2533C72.1722 30.6579 72.4851 31.1384 72.6975 31.6671C72.9098 32.1958 73.0173 32.7621 73.0137 33.3334C73.0145 34.196 72.7641 35.0394 72.2943 35.7567C71.8245 36.474 71.1563 37.033 70.3746 37.3628C69.5928 37.6926 68.7326 37.7784 67.903 37.6092C67.0734 37.44 66.3117 37.0236 65.7145 36.4126C65.1173 35.8016 64.7115 35.0237 64.5484 34.1773C64.3853 33.3309 64.4724 32.4542 64.7985 31.6583C65.1247 30.8624 65.6752 30.1831 66.3804 29.7066C67.0856 29.2301 67.9137 28.9777 68.7598 28.9815ZM70.6634 33.3164C70.6581 32.7966 70.4505 32.3002 70.0863 31.9364C69.7221 31.5726 69.231 31.3713 68.7211 31.3766C68.2113 31.382 67.7244 31.5936 67.3676 31.965C67.0108 32.3363 66.8133 32.837 66.8186 33.3568C66.8212 33.6142 66.8735 33.8685 66.9725 34.1053C67.0715 34.3421 67.2153 34.5567 67.3956 34.7368C67.576 34.9169 67.7894 35.059 68.0236 35.1551C68.2578 35.2511 68.5083 35.2992 68.7608 35.2965C69.0133 35.2939 69.2627 35.2406 69.495 35.1396C69.7272 35.0387 69.9377 34.8921 70.1143 34.7082C70.291 34.5243 70.4304 34.3068 70.5246 34.068C70.6188 33.8291 70.666 33.5738 70.6634 33.3164Z" fill="#333333"/>
<path d="M45.4885 60.26C44.3558 60.2402 43.2773 59.7626 42.4901 58.9321C41.7029 58.1015 41.2715 56.9862 41.2909 55.8315C41.3103 54.6767 41.7788 53.5771 42.5934 52.7745C43.408 51.9719 44.5019 51.5322 45.6346 51.5519C46.1954 51.5617 46.7489 51.684 47.2633 51.9118C47.7778 52.1397 48.2432 52.4686 48.633 52.8798C49.0228 53.2911 49.3293 53.7765 49.535 54.3085C49.7408 54.8405 49.8417 55.4086 49.8322 55.9804C49.8226 56.5522 49.7026 57.1165 49.4791 57.641C49.2556 58.1655 48.933 58.64 48.5297 59.0374C48.1263 59.4348 47.6501 59.7473 47.1283 59.9571C46.6065 60.1668 46.0493 60.2698 45.4885 60.26ZM45.6012 57.8659C45.8586 57.8712 46.1145 57.8238 46.3536 57.7263C46.5927 57.6289 46.8101 57.4835 46.9931 57.2987C47.176 57.114 47.3206 56.8936 47.4184 56.6508C47.5162 56.408 47.5652 56.1476 47.5624 55.8851C47.5596 55.6226 47.5051 55.3633 47.4022 55.1227C47.2992 54.8821 47.1499 54.665 46.9631 54.4843C46.7763 54.3037 46.5557 54.1631 46.3146 54.071C46.0735 53.9789 45.8167 53.9371 45.5594 53.9481C45.302 53.9428 45.0461 53.9903 44.8071 54.0877C44.568 54.1851 44.3505 54.3305 44.1676 54.5153C43.9846 54.7 43.84 54.9204 43.7422 55.1632C43.6444 55.4061 43.5954 55.6665 43.5982 55.929C43.601 56.1915 43.6555 56.4507 43.7585 56.6913C43.8614 56.932 44.0107 57.149 44.1976 57.3297C44.3844 57.5104 44.6049 57.6509 44.846 57.743C45.0871 57.8351 45.3439 57.8769 45.6012 57.8659Z" fill="#333333"/>
<path d="M34.0795 28.9815C34.6399 28.9888 35.1933 29.1085 35.7083 29.334C36.2232 29.5594 36.6895 29.8862 37.0805 30.2955C37.4715 30.7048 37.7796 31.1887 37.987 31.7194C38.1945 32.2502 38.2973 32.8175 38.2896 33.3888C38.2824 34.255 38.0229 35.0996 37.5441 35.8152C37.0652 36.5309 36.3886 37.0853 35.6001 37.4081C34.8116 37.7309 33.9468 37.8076 33.1155 37.6284C32.2842 37.4492 31.5239 37.0222 30.931 36.4016C30.3382 35.781 29.9396 34.9948 29.7859 34.1428C29.6321 33.2908 29.7301 32.4115 30.0675 31.6164C30.4049 30.8213 30.9664 30.1464 31.6807 29.6772C32.395 29.2081 33.2299 28.966 34.0795 28.9815ZM34.1191 31.3756C33.6072 31.3458 33.1044 31.5231 32.7199 31.8689C32.3354 32.2147 32.1001 32.7012 32.0652 33.2228C32.0504 33.4823 32.0859 33.7422 32.1696 33.9877C32.2534 34.2332 32.3837 34.4595 32.5532 34.6536C32.7227 34.8478 32.928 35.006 33.1575 35.1192C33.387 35.2325 33.6361 35.2985 33.8906 35.3136C34.1451 35.3287 34.4 35.2926 34.6408 35.2072C34.8816 35.1218 35.1036 34.989 35.294 34.8162C35.4844 34.6433 35.6396 34.434 35.7507 34.2C35.8618 33.9661 35.9266 33.7121 35.9414 33.4526C35.9554 33.1936 35.9192 32.9343 35.8347 32.6895C35.7503 32.4448 35.6193 32.2195 35.4492 32.0265C35.2791 31.8335 35.0733 31.6767 34.8436 31.565C34.614 31.4533 34.3649 31.389 34.1108 31.3756H34.1191Z" fill="#333333"/>
<path d="M61.4231 44.6187C61.426 45.4832 61.1769 46.3291 60.7074 47.0491C60.2378 47.769 59.5691 48.3304 58.786 48.6621C58.0029 48.9939 57.1408 49.0809 56.3091 48.9122C55.4774 48.7434 54.7137 48.3266 54.1148 47.7145C53.5159 47.1024 53.1089 46.3227 52.9455 45.4744C52.782 44.6261 52.8695 43.7473 53.1968 42.9498C53.524 42.1522 54.0764 41.4718 54.7837 40.9948C55.4909 40.5179 56.3213 40.266 57.1692 40.271C58.2981 40.2749 59.3794 40.7346 60.1766 41.5494C60.9739 42.3642 61.4221 43.4678 61.4231 44.6187ZM59.0749 44.6548C59.0848 44.3962 59.0432 44.1383 58.9525 43.8965C58.8619 43.6548 58.7242 43.4342 58.5476 43.2483C58.3711 43.0623 58.1594 42.9148 57.9253 42.8145C57.6913 42.7143 57.4398 42.6635 57.1859 42.6651C56.9332 42.658 56.6815 42.7021 56.4456 42.7947C56.2096 42.8874 55.994 43.0267 55.8112 43.2048C55.6284 43.3829 55.482 43.5962 55.3804 43.8323C55.2789 44.0683 55.2243 44.3226 55.2197 44.5804C55.213 45.1025 55.4092 45.6062 55.7654 45.9814C56.1217 46.3566 56.6091 46.5728 57.1212 46.5829C57.3752 46.59 57.6279 46.5453 57.8647 46.4516C58.1016 46.3578 58.3176 46.2169 58.5004 46.0369C58.6831 45.857 58.8287 45.6417 58.9288 45.4036C59.0289 45.1656 59.0814 44.9096 59.0833 44.6506L59.0749 44.6548Z" fill="#333333"/>
<path d="M61.4229 55.8889C61.4303 56.4599 61.3266 57.0268 61.1176 57.5566C60.9086 58.0865 60.5985 58.5687 60.2054 58.9755C59.8122 59.3823 59.3438 59.7055 58.8272 59.9263C58.3106 60.1472 57.7562 60.2613 57.1961 60.2621C56.6274 60.2774 56.0615 60.1768 55.5315 59.9662C55.0015 59.7556 54.5181 59.4392 54.1096 59.0356C53.7011 58.632 53.3757 58.1492 53.1527 57.6157C52.9296 57.0822 52.8133 56.5087 52.8105 55.9287C52.8077 55.3488 52.9185 54.7741 53.1365 54.2384C53.3544 53.7027 53.6751 53.2167 54.0797 52.8091C54.4843 52.4014 54.9647 52.0802 55.4927 51.8643C56.0206 51.6484 56.5856 51.5422 57.1543 51.5519C57.7147 51.5479 58.2704 51.6573 58.789 51.8737C59.3077 52.0901 59.7791 52.4091 60.1761 52.8125C60.5731 53.2158 60.8876 53.6953 61.1016 54.2234C61.3156 54.7515 61.4248 55.3175 61.4229 55.8889ZM57.1669 57.8659C57.6762 57.8628 58.1634 57.6535 58.5214 57.2842C58.8794 56.9148 59.0788 56.4156 59.0757 55.8963C59.0727 55.3771 58.8674 54.8803 58.5051 54.5154C58.1429 54.1504 57.6532 53.9471 57.1439 53.9502C56.8917 53.9518 56.6423 54.0039 56.4099 54.1037C56.1775 54.2035 55.9667 54.349 55.7894 54.5319C55.6122 54.7148 55.472 54.9315 55.3769 55.1696C55.2817 55.4078 55.2336 55.6626 55.2351 55.9197C55.2366 56.1769 55.2877 56.4311 55.3856 56.6681C55.4835 56.905 55.6263 57.12 55.8056 57.3007C55.985 57.4814 56.1976 57.6244 56.4311 57.7213C56.6647 57.8183 56.9147 57.8674 57.1669 57.8659Z" fill="#333333"/>
<path d="M68.7285 40.271C69.5757 40.2676 70.4048 40.5209 71.1107 40.9986C71.8165 41.4764 72.3673 42.1571 72.6931 42.9544C73.019 43.7517 73.1052 44.6297 72.9409 45.4771C72.7765 46.3245 72.3691 47.103 71.7701 47.7139C71.1712 48.3249 70.4078 48.7407 69.5768 48.9086C68.7457 49.0765 67.8845 48.9891 67.1023 48.6573C66.32 48.3254 65.6521 47.7643 65.1832 47.0449C64.7142 46.3255 64.4654 45.4803 64.4683 44.6165C64.465 44.0451 64.5729 43.4787 64.7858 42.9501C64.9987 42.4214 65.3124 41.9411 65.7086 41.537C66.1048 41.1328 66.5758 40.8128 67.0941 40.5955C67.6125 40.3782 68.168 40.2679 68.7285 40.271ZM66.8186 44.5378C66.8033 44.7975 66.8387 45.0577 66.923 45.3033C67.0073 45.5488 67.1387 45.7748 67.3095 45.9681C67.4804 46.1613 67.6872 46.318 67.9181 46.4289C68.1489 46.5398 68.3991 46.6027 68.654 46.614C68.909 46.6253 69.1636 46.5848 69.403 46.4947C69.6424 46.4047 69.8618 46.2669 70.0485 46.0895C70.2351 45.9121 70.3852 45.6986 70.4901 45.4614C70.595 45.2242 70.6525 44.9681 70.6593 44.708C70.6727 44.1941 70.4875 43.6954 70.1437 43.3194C69.7998 42.9434 69.3248 42.7201 68.821 42.6978C68.3173 42.6755 67.8251 42.8558 67.4505 43.2C67.076 43.5442 66.849 44.0246 66.8186 44.5378Z" fill="#333333"/>
<path d="M68.7767 60.2643C67.9308 60.2715 67.1018 60.0225 66.3948 59.5488C65.6879 59.0752 65.1347 58.3983 64.8054 57.6038C64.4762 56.8094 64.3856 55.9331 64.5453 55.0862C64.7049 54.2392 65.1076 53.4596 65.7023 52.8462C66.2969 52.2327 67.0568 51.8131 67.8856 51.6404C68.7144 51.4677 69.5748 51.5497 70.3579 51.876C71.1409 52.2023 71.8113 52.7583 72.2842 53.4734C72.757 54.1886 73.011 55.0308 73.0139 55.8932C73.0191 56.4644 72.9135 57.0311 72.703 57.5605C72.4925 58.0899 72.1814 58.5716 71.7876 58.9779C71.3937 59.3841 70.9249 59.707 70.4082 59.9278C69.8914 60.1486 69.337 60.2629 68.7767 60.2643ZM70.6552 55.9273C70.6594 55.539 70.5503 55.1581 70.3417 54.8331C70.1332 54.5081 69.8347 54.2536 69.4841 54.1019C69.1334 53.9501 68.7465 53.908 68.3723 53.9809C67.9981 54.0537 67.6536 54.2383 67.3825 54.5111C67.1114 54.7839 66.9259 55.1327 66.8496 55.5132C66.7732 55.8936 66.8094 56.2887 66.9537 56.6481C67.0979 57.0076 67.3436 57.3152 67.6596 57.5321C67.9757 57.7489 68.3477 57.8651 68.7287 57.866C68.9818 57.8737 69.2339 57.8292 69.4698 57.7351C69.7056 57.641 69.9204 57.4992 70.1012 57.3183C70.2819 57.1374 70.4249 56.9212 70.5215 56.6825C70.6182 56.4438 70.6665 56.1876 70.6636 55.9294L70.6552 55.9273Z" fill="#333333"/>
</svg>
