<svg width="80" height="98" viewBox="0 0 80 98" fill="none" xmlns="http://www.w3.org/2000/svg">
<path d="M71.9164 0C73.7006 0.507883 75.4488 1.07566 76.8579 2.37411C78.7264 4.0966 79.9359 6.20719 79.9527 8.73223C80.0249 19.3475 79.9936 29.9651 79.9912 40.5947C79.9912 41.62 79.3732 42.2717 78.5196 42.2453C77.6659 42.2189 77.1104 41.5649 77.108 40.5204C77.0984 35.7051 77.0984 30.8906 77.108 26.0769C77.108 20.6243 77.108 15.1726 77.108 9.72164C77.108 6.52342 75.4752 4.21159 72.5776 3.23176C68.7735 1.9381 64.5845 4.63323 64.219 8.61724C64.1685 9.18741 64.1373 9.76237 64.1373 10.3349C64.1373 28.1252 64.1373 45.9155 64.1373 63.7057V64.9635C64.5533 64.9874 64.8346 65.0162 65.116 65.0186C68.6701 65.0186 72.2234 65.0186 75.7758 65.0186C76.9493 65.0186 77.1008 64.8605 77.1008 63.6914C77.1008 58.2388 77.1008 52.7863 77.1008 47.3337C77.0825 47.0137 77.0962 46.6927 77.1417 46.3754C77.298 45.6304 77.7813 45.1776 78.546 45.1776C79.3516 45.1776 79.8469 45.6567 79.9672 46.4617C79.9945 46.7155 80.0025 46.9709 79.9912 47.2259C79.9912 52.7407 79.9912 58.2564 79.9912 63.7728C79.9912 66.4775 78.5652 67.9006 75.8504 67.9054C72.3235 67.9054 68.8023 67.9054 65.2867 67.9054H64.1349V69.2086C64.1349 77.2117 64.1349 85.2149 64.1349 93.218C64.1349 94.4159 64.005 95.5706 63.173 96.5289C62.24 97.5949 61.0449 97.9663 59.6598 97.9663C52.3945 97.9519 45.1292 97.9519 37.8639 97.9663C26.853 97.9663 15.8421 97.916 4.83112 97.9998C2.02247 98.0214 0.021795 96.2941 0.021795 93.242C0.0819115 65.9313 0.130013 38.5943 0.000161241 11.2716C-0.0286947 5.52203 3.81875 0.800155 8.94068 0.114992C8.99598 0.114992 9.04649 0.0479138 9.09698 0.0143744L71.9164 0ZM63.6563 2.88679H62.7474C45.4675 2.88679 28.1876 2.88679 10.9077 2.88679C10.1083 2.87807 9.31112 2.97392 8.53671 3.17187C4.98262 4.13014 2.9675 6.95943 2.9675 10.8979C2.9675 38.2773 2.9675 65.6582 2.9675 93.0408C2.9675 94.8423 3.17912 95.0507 5.01628 95.0507H59.1596C59.4803 95.0633 59.8015 95.0577 60.1215 95.034C60.778 94.9597 61.1772 94.6027 61.206 93.9176C61.2228 93.5031 61.2204 93.0887 61.2204 92.6742C61.2092 67.2705 61.1996 41.866 61.1916 16.4607C61.1916 13.7536 61.2324 11.0393 61.3984 8.33934C61.4609 7.29003 61.8312 6.22875 62.2304 5.24173C62.5502 4.45116 63.1225 3.74923 63.6563 2.88679Z" fill="#333333"/>
<path d="M40.5714 33.7182H27.513C27.1691 33.7252 26.8248 33.7165 26.4823 33.6921C26.1637 33.6646 25.8681 33.5558 25.6463 33.3844C25.4244 33.213 25.2903 32.9897 25.2669 32.7531C25.2435 32.5164 25.3323 32.2811 25.518 32.0876C25.7038 31.8942 25.9748 31.7546 26.2846 31.6931C26.6182 31.6343 26.9608 31.6086 27.3036 31.6165C36.1331 31.6165 44.9627 31.6165 53.7922 31.6165C54.164 31.6165 54.6512 31.5817 54.8771 31.7332C55.2795 31.9978 55.7196 32.3757 55.7808 32.7396C55.8608 33.222 55.3831 33.6103 54.6582 33.6834C54.3162 33.7127 53.9717 33.7238 53.6275 33.7165L40.5714 33.7182Z" fill="#333333"/>
<path d="M40.4899 82.1937C36.0437 82.1937 31.5951 82.1937 27.1488 82.185C26.6969 82.185 26.1155 82.1641 25.826 81.9674C25.4894 81.7394 25.1999 81.2712 25.2752 80.9684C25.3505 80.6655 25.8589 80.3627 26.2709 80.1608C26.5062 80.0407 26.9393 80.1016 27.2806 80.1016C36.0821 80.1016 44.882 80.1016 53.6803 80.1016C53.8686 80.1016 54.057 80.1016 54.2453 80.1016C55.1868 80.1417 55.8011 80.5698 55.7893 81.1616C55.7776 81.7534 55.1585 82.1815 54.2076 82.1867C51.6702 82.2024 49.1329 82.1867 46.5955 82.1867L40.4899 82.1937Z" fill="#333333"/>
<path d="M40.5587 63.2706H53.8682C55.12 63.2887 55.8011 63.8444 55.7894 64.8285C55.7776 65.8126 55.0848 66.3864 53.84 66.3864C44.967 66.3864 36.094 66.3864 27.2209 66.3864C26.8787 66.3938 26.5374 66.3439 26.2087 66.2384C25.5323 65.9788 25.1049 65.3738 25.3186 64.6519C25.4736 64.1326 25.9832 63.6756 26.4271 63.3355C26.662 63.1511 27.0941 63.255 27.437 63.255L40.5587 63.2706Z" fill="#333333"/>
<path d="M36.3334 50.5801C33.3582 50.5801 30.3909 50.5801 27.4314 50.5801C27.0892 50.5854 26.7472 50.5567 26.4097 50.4943C25.6674 50.3357 25.2517 49.8026 25.2634 48.9704C25.2752 48.1383 25.698 47.6234 26.4378 47.4882C26.7487 47.4365 27.063 47.4139 27.3774 47.4206C33.3105 47.4206 39.2436 47.4206 45.1767 47.4206C46.6659 47.4206 47.3846 47.9407 47.3682 49.0198C47.3517 50.099 46.6377 50.5801 45.1368 50.5801H36.3334Z" fill="#333333"/>
<path d="M10.5265 48.4304C10.5518 45.5301 12.7338 43.1391 15.3002 43.2057C16.2371 43.2138 17.1508 43.5308 17.9257 44.1165C18.7007 44.7023 19.302 45.5304 19.6537 46.4963C20.0054 47.4621 20.0916 48.5223 19.9015 49.5427C19.7114 50.563 19.2535 51.4978 18.5857 52.2287C17.9179 52.9596 17.0702 53.4538 16.1498 53.6489C15.2294 53.8439 14.2777 53.731 13.415 53.3244C12.5523 52.9178 11.8174 52.2358 11.3033 51.3647C10.7891 50.4936 10.5188 49.4724 10.5265 48.4304V48.4304ZM15.36 46.3543C15.1086 46.3331 14.8559 46.368 14.6167 46.4569C14.3775 46.5457 14.1567 46.6868 13.9672 46.8718C13.7777 47.0568 13.6233 47.2821 13.5131 47.5343C13.4028 47.7866 13.339 48.0608 13.3253 48.3408C13.2919 48.9068 13.4616 49.4646 13.7973 49.8916C14.1329 50.3187 14.6072 50.5803 15.1161 50.6191C15.6241 50.6398 16.1199 50.4434 16.5018 50.0701C16.8836 49.6969 17.1224 49.1751 17.1692 48.6122C17.1933 48.0482 17.0179 47.4962 16.6806 47.0742C16.3434 46.6522 15.871 46.3938 15.3646 46.3543H15.36Z" fill="#333333"/>
<path d="M15.3402 76.9254C16.2769 76.9406 17.188 77.2336 17.9584 77.7672C18.7288 78.3008 19.3238 79.0511 19.6683 79.9232C20.0127 80.7954 20.0911 81.7501 19.8935 82.6669C19.6959 83.5836 19.2312 84.4211 18.5582 85.0734C17.8852 85.7258 17.0341 86.1637 16.1124 86.3318C15.1908 86.5 14.2401 86.3908 13.3804 86.018C12.5208 85.6452 11.7909 85.0257 11.283 84.2377C10.7751 83.4496 10.512 82.5286 10.527 81.5909C10.5477 80.3334 11.0663 79.1356 11.9689 78.2607C12.8715 77.3859 14.0841 76.9056 15.3402 76.9254V76.9254ZM13.3353 81.6766C13.3407 82.1896 13.5475 82.6798 13.9109 83.0414C14.2744 83.4031 14.7653 83.6071 15.2777 83.6096C15.5383 83.617 15.7977 83.572 16.0405 83.477C16.2832 83.382 16.5044 83.2391 16.6909 83.0568C16.8773 82.8744 17.0252 82.6564 17.1257 82.4156C17.2263 82.1749 17.2773 81.9163 17.2759 81.6554C17.2745 81.3945 17.2207 81.1365 17.1176 80.8968C17.0145 80.6571 16.8643 80.4407 16.6759 80.2604C16.4875 80.08 16.2648 79.9395 16.021 79.8472C15.7772 79.7548 15.5173 79.7125 15.2569 79.7228C14.7441 79.7307 14.2549 79.9399 13.8946 80.3053C13.5343 80.6707 13.3318 81.1632 13.3306 81.6766H13.3353Z" fill="#333333"/>
<path d="M10.5265 33.2281C10.5197 32.2909 10.7905 31.3726 11.3047 30.5894C11.8189 29.8061 12.5534 29.1929 13.4155 28.8273C14.2775 28.4617 15.2285 28.36 16.1483 28.5352C17.068 28.7103 17.9154 29.1544 18.5832 29.8113C19.251 30.4682 19.7094 31.3085 19.9004 32.2261C20.0914 33.1436 20.0066 34.0973 19.6565 34.9666C19.3065 35.8359 18.707 36.5818 17.9337 37.1102C17.1604 37.6387 16.2481 37.9258 15.3119 37.9354C14.0546 37.9435 12.8454 37.4527 11.9486 36.5706C11.0518 35.6884 10.5405 34.4867 10.5265 33.2281ZM15.2541 35.1226C15.7653 35.1191 16.255 34.9165 16.6195 34.5577C16.984 34.1988 17.1946 33.712 17.2066 33.2004C17.1906 32.6888 16.9814 32.2024 16.6212 31.8392C16.2609 31.476 15.7765 31.2631 15.2656 31.2434C14.7537 31.2524 14.2655 31.4609 13.9048 31.8247C13.5441 32.1884 13.3393 32.6786 13.3339 33.1911C13.3315 33.4447 13.3794 33.6962 13.4749 33.931C13.5704 34.1659 13.7116 34.3794 13.8903 34.5591C14.069 34.7388 14.2815 34.8812 14.5157 34.9779C14.7498 35.0747 15.0008 35.1238 15.2541 35.1226V35.1226Z" fill="#333333"/>
<path d="M20 64.8552C19.9904 65.7922 19.7037 66.7054 19.1761 67.4794C18.6484 68.2534 17.9035 68.8536 17.0354 69.2041C16.1673 69.5547 15.2149 69.6399 14.2984 69.449C13.382 69.2582 12.5426 68.7997 11.8862 68.1317C11.2298 67.4636 10.7858 66.6158 10.6103 65.6954C10.4349 64.7749 10.5358 63.8231 10.9003 62.96C11.2648 62.0969 11.8766 61.3612 12.6584 60.8459C13.4402 60.3306 14.3571 60.0588 15.2931 60.0647C16.549 60.0841 17.7468 60.5976 18.6276 61.494C19.5084 62.3904 20.0014 63.5978 20 64.8552V64.8552ZM13.3327 64.8552C13.3458 65.3672 13.5562 65.8542 13.9199 66.2144C14.2836 66.5746 14.7723 66.78 15.2839 66.7876C15.7938 66.7588 16.2743 66.5396 16.6305 66.1732C16.9867 65.8068 17.1925 65.3199 17.2073 64.8089C17.1899 64.2979 16.9747 63.8137 16.6071 63.4587C16.2395 63.1037 15.7484 62.9057 15.2376 62.9066C14.985 62.9075 14.735 62.9585 14.5022 63.0567C14.2694 63.1549 14.0583 63.2983 13.8811 63.4786C13.704 63.6589 13.5643 63.8726 13.4702 64.1073C13.3761 64.342 13.3293 64.5931 13.3327 64.8459V64.8552Z" fill="#333333"/>
<path d="M15.2629 21.0754C14.328 21.0753 13.4139 20.8291 12.636 20.3676C11.858 19.9062 11.2509 19.2502 10.8911 18.4822C10.5313 17.7143 10.435 16.8688 10.6142 16.0523C10.7935 15.2357 11.2403 14.4846 11.8983 13.8936C12.5564 13.3026 13.3963 12.8981 14.3122 12.7311C15.2281 12.5641 16.1791 12.642 17.0454 12.955C17.9116 13.268 18.6544 13.8022 19.1802 14.4902C19.7059 15.1782 19.9911 15.9892 19.9998 16.8212C20.0068 17.3783 19.8894 17.9311 19.6544 18.4475C19.4194 18.9639 19.0715 19.4337 18.6308 19.8294C18.1901 20.2252 17.6655 20.5392 17.0873 20.7531C16.5092 20.9669 15.8891 21.0765 15.2629 21.0754ZM13.3238 16.8953C13.3377 17.351 13.5521 17.7837 13.9208 18.1002C14.2895 18.4167 14.7831 18.5919 15.2953 18.5879C15.8064 18.5654 16.2885 18.3699 16.6429 18.0415C16.9974 17.713 17.1974 17.2765 17.2021 16.8212C17.1794 16.3654 16.9592 15.9352 16.5877 15.6208C16.2163 15.3064 15.7224 15.1322 15.2097 15.1348C14.6976 15.1466 14.2117 15.3385 13.8582 15.6685C13.5048 15.9985 13.3126 16.4396 13.3238 16.8953V16.8953Z" fill="#333333"/>
<path d="M44.213 17.9061H34.7904C34.4963 17.9237 34.2014 17.9123 33.9094 17.8721C33.1047 17.7074 32.6125 17.2001 32.6322 16.3033C32.6518 15.4065 33.144 14.8574 33.966 14.7973C34.9749 14.7241 35.9937 14.7633 37.0076 14.7633H53.7932C55.0926 14.7633 55.8111 15.3542 55.789 16.3661C55.7668 17.3779 55.068 17.9061 53.8203 17.9113C52.4791 17.9113 51.1379 17.9113 49.7967 17.9113L44.213 17.9061Z" fill="#333333"/>
<path d="M52.6043 47.4194C53.2491 47.4561 53.8589 47.4587 54.4606 47.5321C54.8253 47.5625 55.1646 47.7258 55.4104 47.9892C55.6561 48.2525 55.7901 48.5964 55.7853 48.9518C55.8339 49.7114 55.4481 50.4187 54.636 50.4868C53.2897 50.6255 51.9314 50.6106 50.5888 50.4422C50.1409 50.3767 49.5905 49.5595 49.4933 49.0173C49.3638 48.2996 49.8846 47.6814 50.7102 47.5504C51.3523 47.4509 52.0026 47.4587 52.6043 47.4194Z" fill="#333333"/>
<path d="M27.8362 17.8955C27.3872 17.8955 26.9383 17.9374 26.4893 17.8955C26.318 17.8838 26.1504 17.8327 25.9961 17.7452C25.8417 17.6577 25.7038 17.5355 25.5901 17.3856C25.4764 17.2357 25.3892 17.061 25.3335 16.8717C25.2779 16.6823 25.2549 16.482 25.2658 16.2822C25.3242 15.3944 25.7664 14.8497 26.5185 14.7999C27.4426 14.7371 28.369 14.7371 29.2932 14.7999C30.0497 14.8523 30.4762 15.4128 30.5234 16.298C30.5705 17.1831 30.0519 17.8091 29.2752 17.8955C28.7948 17.9374 28.3144 17.8955 27.8362 17.8955Z" fill="#333333"/>
</svg>
