<svg width="80" height="80" viewBox="0 0 80 80" fill="none" xmlns="http://www.w3.org/2000/svg">
<path d="M80 77.1661C79.2861 79.2529 77.8062 80.0042 75.629 80C51.7815 79.9624 27.9326 79.952 4.08228 79.9687C3.48551 79.9855 2.88976 79.9095 2.31637 79.7433C1.54956 79.4685 0.902799 78.9346 0.487781 78.2338C0.0727631 77.533 -0.0844628 76.7094 0.0432334 75.905C0.17093 75.1007 0.575532 74.3662 1.1872 73.8284C1.79886 73.2905 2.5792 72.9831 3.39345 72.9591C4.6918 72.9236 5.99014 72.9591 7.42208 72.9591C7.42208 72.0138 7.3678 71.1123 7.44712 70.2212C7.4847 69.8038 7.6663 69.2738 7.97106 69.0129C8.66824 68.4161 9.66183 68.9608 9.74741 69.9416C9.79125 70.432 9.76412 70.9307 9.7662 71.4232C9.76829 71.9157 9.7662 72.3581 9.7662 72.884H28.3083V62.0743H9.75576C9.75576 63.0509 9.78498 64.0067 9.75576 64.9603C9.72653 65.6865 9.28192 66.1018 8.63484 66.1164C7.95435 66.1331 7.51393 65.6991 7.44087 64.9478C7.4367 64.87 7.4367 64.7919 7.44087 64.7141C7.44087 63.6999 7.42208 62.6836 7.44087 61.6694C7.47218 60.3318 8.15266 59.6765 9.50319 59.6744C15.4397 59.6744 21.3762 59.6744 27.3127 59.6744H28.325C28.3417 59.3572 28.3689 59.0839 28.3689 58.8126C28.3689 57.1974 28.3689 55.5843 28.3689 53.9712C28.3835 52.5104 29.041 51.8677 30.4792 51.8656C36.8304 51.8656 43.1829 51.8656 49.5369 51.8656C50.9688 51.8656 51.6243 52.5229 51.641 53.9775C51.6556 56.8406 51.641 59.7037 51.641 62.5668V63.5789H59.1096C60.6167 63.5789 61.1969 63.8961 61.2074 64.7308C61.2178 65.5655 60.6271 65.9224 59.1472 65.9224H51.6932V72.8902H70.1894V65.9182H68.7282C67.505 65.9182 66.2797 65.937 65.0565 65.9077C64.7487 65.9108 64.4523 65.7915 64.2325 65.576C64.0127 65.3606 63.8875 65.0667 63.8844 64.759C63.8814 64.4512 64.0008 64.1549 64.2163 63.9352C64.4317 63.7154 64.7257 63.5903 65.0335 63.5872C66.9852 63.5643 68.939 63.5497 70.8907 63.5977C71.9198 63.6206 72.5606 64.399 72.5606 65.5655C72.5815 67.6732 72.5606 69.7809 72.5606 71.8906V72.9487C73.8944 72.9487 75.1824 72.9299 76.4703 72.9487C77.8959 72.9758 78.9438 73.6519 79.6118 74.9061C79.7579 75.1774 79.8601 75.4695 79.9812 75.7533L80 77.1661ZM30.7714 54.2279V72.9007H49.2301V54.2279H30.7714ZM40.006 77.6335H75.8586C77.0693 77.6335 77.6267 77.2788 77.6496 76.4941C77.6726 75.7095 77.0902 75.2901 75.8461 75.2901H4.14073C2.93006 75.2901 2.37273 75.6448 2.34976 76.4295C2.3268 77.2141 2.90918 77.6335 4.15326 77.6335H40.006Z" fill="#333333"/>
<path d="M40.939 0C41.7301 0.310935 42.5672 0.544657 43.3082 0.951586C44.9321 1.84474 45.7066 3.4328 46.3787 5.05426C46.6208 5.64274 46.41 6.19574 45.8026 6.50041C45.5291 6.63365 45.2141 6.65359 44.9261 6.5559C44.638 6.45821 44.4001 6.25078 44.2642 5.97871C43.9949 5.50501 43.7841 4.99791 43.5274 4.51794C42.7738 3.11143 41.5944 2.35392 39.9955 2.3581C38.3966 2.36227 37.1963 3.10726 36.472 4.53047C35.4116 6.61728 34.3596 8.70409 33.3681 10.8243C32.5039 12.669 31.095 13.6477 29.0932 13.8982C26.8221 14.1841 24.5573 14.5242 22.2967 14.8685C20.7019 15.1148 19.5622 15.985 19.0529 17.548C18.5603 19.0672 18.8734 20.4445 20.0048 21.5734C21.6976 23.2659 23.4093 24.9436 25.1501 26.5818C26.5675 27.9236 27.01 29.52 26.6635 31.4044C26.246 33.629 25.8744 35.8598 25.5008 38.0822C25.2232 39.7245 25.6365 41.1436 27.0288 42.1536C28.421 43.1636 29.9177 43.1678 31.4352 42.3623C33.4558 41.2896 35.4993 40.2588 37.5095 39.1632C39.2148 38.2345 40.8639 38.27 42.5567 39.1903C44.5439 40.2713 46.5666 41.2875 48.56 42.356C50.1088 43.1907 51.6097 43.174 53.0291 42.1139C54.4485 41.0538 54.772 39.6098 54.4777 37.9403C54.0832 35.7116 53.7012 33.4829 53.3109 31.2625C52.9915 29.4345 53.4758 27.8861 54.8472 26.5943C56.4941 25.0417 58.0868 23.4307 59.7233 21.8656C60.9757 20.6594 61.4996 19.2425 60.9486 17.5543C60.3975 15.866 59.1346 15.0501 57.4 14.8164C55.0037 14.495 52.6109 14.1416 50.2216 13.7563C48.2323 13.437 47.0905 12.1035 46.4288 10.3235C46.2034 9.72454 46.4163 9.18197 47.0341 8.8919C47.652 8.60183 48.1446 8.83347 48.5183 9.35935C48.6322 9.53314 48.7273 9.71851 48.8021 9.91235C49.2384 10.9558 50.0546 11.4169 51.1588 11.563C53.5801 11.8844 56.0078 12.2058 58.4124 12.6377C60.8525 13.078 62.4849 14.5847 63.2134 16.9345C63.9419 19.2842 63.4221 21.4357 61.6812 23.1949C60.0113 24.904 58.2788 26.5672 56.5317 28.2032C56.1463 28.5343 55.8588 28.9643 55.7002 29.4469C55.5417 29.9294 55.5181 30.4461 55.632 30.9411C56.0495 33.1657 56.4085 35.3986 56.7926 37.6189C57.2393 40.2003 56.5379 42.3977 54.4234 43.9837C52.3089 45.5697 49.9627 45.6991 47.5936 44.4845C45.5333 43.4265 43.4835 42.3539 41.4525 41.2458C41.0197 40.9805 40.5224 40.8393 40.0147 40.8374C39.5071 40.8356 39.0087 40.9733 38.574 41.2354C36.4491 42.3915 34.322 43.5455 32.1512 44.6056C28.4106 46.4315 23.9937 44.3426 23.2548 40.2754C23.0001 38.871 23.3341 37.3393 23.5178 35.8806C23.7265 34.23 24.0543 32.596 24.3632 30.962C24.5719 29.8393 24.2839 28.9503 23.4322 28.1594C21.7936 26.634 20.2177 25.0438 18.6104 23.4871C16.6504 21.5881 15.972 19.3134 16.8591 16.7279C17.7462 14.1423 19.6979 12.8214 22.3885 12.4833C24.6346 12.1995 26.868 11.8406 29.1078 11.5171C29.5523 11.4698 29.9762 11.3052 30.3361 11.0401C30.6959 10.7749 30.9788 10.4188 31.1555 10.0083C31.9904 8.25125 32.9548 6.54424 33.723 4.75584C34.7667 2.30593 36.3802 0.565526 39.0708 0H40.939Z" fill="#333333"/>
<path d="M67.0958 27.3623C68.1896 27.571 69.2959 27.7254 70.3751 27.9883C71.3541 28.2262 71.7945 29.0318 71.4898 29.9625C70.8636 31.8636 69.9702 33.606 68.5069 35.0126C66.3903 37.0472 63.4409 37.5877 60.7962 36.3356C60.5994 36.2281 60.4284 36.0791 60.295 35.899C60.1616 35.7188 60.0691 35.5117 60.0238 35.2922C59.5709 30.9934 62.7813 27.4625 67.0958 27.3623ZM62.4389 34.3949C65.0982 35.2901 68.0748 33.2868 68.8722 30.0814C65.3195 29.0568 62.489 30.9558 62.4389 34.3949Z" fill="#333333"/>
<path d="M12.9955 27.3623C17.2412 27.4938 20.4495 31.0747 19.984 35.3277C19.9348 35.5451 19.8394 35.7495 19.7044 35.927C19.5693 36.1045 19.3978 36.2509 19.2013 36.3565C17.9572 36.9452 16.5635 37.1418 15.2051 36.9205C13.8466 36.6991 12.5876 36.0701 11.5949 35.1169C10.069 33.6937 9.13598 31.9074 8.50559 29.9562C8.20292 29.0234 8.64962 28.2283 9.63694 27.9904C10.7453 27.7191 11.8767 27.571 12.9955 27.3623ZM17.5877 34.3782C17.3477 31.1833 15.11 28.9671 11.1315 30.1169C12.5217 34.1006 15.5004 35.2922 17.5877 34.3719V34.3782Z" fill="#333333"/>
<path d="M39.2043 19.0255C38.5364 19.0255 37.9686 19.0464 37.4008 19.0255C36.6264 18.9921 36.1129 18.4996 36.1192 17.8381C36.1255 17.1766 36.6389 16.7091 37.4259 16.6945C38.3638 16.6778 39.3003 16.6778 40.2355 16.6945C41.0997 16.7112 41.538 17.1286 41.5401 17.9967C41.5554 22.6767 41.5554 27.3574 41.5401 32.0388C41.5401 32.8736 41.0433 33.4099 40.3545 33.4036C39.6656 33.3974 39.2064 32.8673 39.2064 32.0201C39.2064 28.0162 39.2064 24.0116 39.2064 20.0063L39.2043 19.0255Z" fill="#333333"/>
</svg>
