<svg width="80" height="80" viewBox="0 0 80 80" fill="none" xmlns="http://www.w3.org/2000/svg">
<g clip-path="url(#clip0_198_785)">
<path d="M80 55.0008C79.7559 56.4443 79.6265 57.9216 79.2445 59.3271C76.256 70.3547 69.2584 77.2878 58.1661 79.4668C49.0773 81.2538 41.1593 78.4531 34.5436 71.9162C34.385 71.75 34.1926 71.6205 33.9797 71.5365C33.7668 71.4524 33.5384 71.4159 33.3102 71.4295C27.427 71.4421 21.5439 71.459 15.6607 71.4295C14.6803 71.4327 13.7096 71.233 12.8086 70.8425C11.9077 70.452 11.0956 69.8792 10.4226 69.1593C9.74957 68.4394 9.22989 67.5878 8.89566 66.6571C8.56143 65.7264 8.41976 64.7364 8.4794 63.7483C8.58793 61.641 9.52289 59.9193 11.1633 58.48C9.47489 56.9754 8.48566 55.1273 8.46897 52.8429C8.45227 50.5586 9.39141 48.6789 11.1466 47.111C9.44567 45.5917 8.45645 43.7183 8.45853 41.4044C8.46062 39.0906 9.42898 37.2509 11.1486 35.7147C9.77959 34.4988 8.88845 33.0637 8.56914 31.2893C7.79905 26.9988 11.0422 22.9085 15.3602 22.7779C16.7563 22.7336 18.1546 22.7779 19.6739 22.7779C18.0544 20.011 18.0503 17.3157 19.6739 14.5593H18.0169C14.348 14.5593 10.677 14.5931 7.006 14.5425C3.49153 14.4772 0.655335 11.8493 0.0793296 8.21843C-0.436153 4.96052 1.59239 1.55721 4.80007 0.461403C5.66081 0.171836 6.56205 0.023841 7.46931 0.0230813C20.0412 -0.00642113 32.6139 -0.0141479 45.1872 -9.91817e-05C51.0161 -9.91817e-05 54.4158 5.74866 51.6756 10.9348C51.6172 11.0443 51.5629 11.1455 51.4523 11.3773H52.3831C56.2607 11.3773 60.1404 11.3457 64.018 11.3773C64.9715 11.3894 65.913 11.5933 66.7876 11.977C67.6621 12.3607 68.4522 12.9165 69.1117 13.612C69.7711 14.3075 70.2867 15.1287 70.6283 16.0277C70.9699 16.9267 71.1306 17.8853 71.1012 18.8477C71.0156 22.6135 67.9498 25.7703 64.2141 25.8904C62.8138 25.9346 61.4093 25.8904 59.9505 25.8904C60.2218 26.7333 60.6308 27.2053 61.4844 27.5109C71.7168 31.1882 77.8275 38.4268 79.7225 49.271C79.8247 49.8632 79.9145 50.4596 80.0084 51.0538L80 55.0008ZM53.4266 76.8136C66.3408 76.8305 76.88 66.1822 76.8842 53.1127C76.8883 40.0431 66.4076 29.4391 53.5101 29.4012C40.6126 29.3632 30.0379 39.9883 30.0107 53.0621C29.9836 66.1359 40.4999 76.7989 53.4266 76.8136ZM26.3397 11.3794C32.666 11.3794 38.9917 11.3794 45.3166 11.3794C47.2867 11.3794 48.8644 10.2141 49.3737 8.42916C50.1354 5.74866 48.1862 3.18195 45.3521 3.17773C37.7791 3.16649 30.2048 3.16087 22.6291 3.16087C17.5257 3.16087 12.4238 3.16087 7.32322 3.16087C5.39903 3.16087 3.83171 4.322 3.31414 6.08161C2.52944 8.76001 4.46615 11.3794 7.28565 11.3794C13.6384 11.3942 19.9891 11.3794 26.3397 11.3794ZM44.7322 22.7589C51.0836 22.7589 57.435 22.7589 63.7863 22.7589C66.2427 22.7589 68.0751 20.837 67.9603 18.4368C67.8622 16.1967 66.0528 14.5404 63.6715 14.5404H33.5294C30.8998 14.5404 28.2723 14.5256 25.6427 14.5404C24.7631 14.5373 23.9064 14.8236 23.2023 15.3559C22.4982 15.8882 21.9849 16.6375 21.74 17.4906C20.9762 20.1838 22.9213 22.7589 25.7575 22.7589C32.081 22.773 38.4059 22.773 44.7322 22.7589ZM55.0962 26.3645L55.1087 26.059C54.5556 26.0147 54.0047 25.9304 53.4516 25.9283C44.1062 25.9283 34.7607 25.9283 25.4152 25.9283C22.1637 25.9199 18.908 25.9199 15.6523 25.9199C14.7713 25.915 13.9128 26.2004 13.2069 26.7328C12.5011 27.2653 11.9866 28.0157 11.7413 28.8701C10.9733 31.5506 12.9163 34.1384 15.7483 34.1384C21.788 34.1553 27.8257 34.1384 33.8654 34.1574C34.1196 34.1647 34.3726 34.1182 34.608 34.021C34.8434 33.9237 35.0561 33.7778 35.2323 33.5926C39.6985 29.378 44.9639 26.9082 51.0683 26.3835C52.404 26.2655 53.7563 26.3645 55.0962 26.3645ZM31.9099 37.39C31.832 37.3552 31.7509 37.3284 31.6678 37.3099C26.2583 37.3099 20.851 37.2783 15.4415 37.3226C13.2961 37.3394 11.5869 39.2191 11.5786 41.3897C11.5681 43.5939 13.292 45.4779 15.4749 45.5032C19.4798 45.5495 23.4848 45.5242 27.4897 45.5032C27.6042 45.4964 27.7155 45.462 27.8142 45.403C27.913 45.344 27.9963 45.262 28.0573 45.1639C28.9321 42.3852 30.2328 39.762 31.912 37.39H31.9099ZM27.521 60.0584C23.7644 60.0584 19.7783 60.0584 15.7984 60.0584C13.3921 60.0584 11.5702 61.8559 11.5806 64.1824C11.5911 66.5089 13.4109 68.2769 15.8339 68.2769C20.8301 68.2853 25.827 68.2853 30.8246 68.2769C30.9596 68.2743 31.0941 68.2623 31.2274 68.2411C30.0086 65.5479 28.8003 62.8653 27.521 60.0584ZM27.043 48.7042C26.9992 48.7042 26.8469 48.681 26.6945 48.6789C23.0034 48.6789 19.3108 48.6789 15.6169 48.6789C15.3823 48.6785 15.1482 48.7003 14.9177 48.7442C13.9044 48.9091 12.9904 49.4552 12.3594 50.2726C11.7285 51.0901 11.4273 52.1184 11.5163 53.1509C11.6054 54.1834 12.0781 55.1436 12.8396 55.8386C13.601 56.5336 14.5947 56.9119 15.621 56.8974C19.1689 56.9227 22.6938 56.8974 26.2312 56.8974H27.043V48.7042Z" fill="#333333"/>
<path d="M55.042 63.603C54.9314 65.1645 54.4159 65.8515 53.4288 65.8452C52.4416 65.8388 51.9679 65.1835 51.828 63.5988C50.5362 63.2258 49.3508 62.6083 48.4221 61.5589C47.491 60.5473 46.9472 59.2339 46.8882 57.8542C46.8464 56.8174 47.4204 56.1073 48.3178 56.0314C49.2152 55.9555 49.9039 56.6088 50.0061 57.6899C50.1522 59.2408 51.3293 60.3893 52.9446 60.5579C54.7477 60.7476 56.2837 59.8562 56.747 58.3579C57.2437 56.7373 56.0959 55.0283 54.2427 54.6869C53.4517 54.5415 52.6315 54.55 51.8489 54.375C49.0753 53.7576 47.0301 51.4248 46.8923 48.7949C46.7463 46.0195 48.4284 43.5751 51.2061 42.6478C51.778 42.4561 51.8948 42.1906 51.8948 41.6511C51.8867 41.4402 51.9207 41.2298 51.995 41.0325C52.0692 40.8352 52.1821 40.655 52.3268 40.5028C52.4716 40.3505 52.6452 40.2293 52.8374 40.1463C53.0296 40.0634 53.2364 40.0204 53.4454 40.02C53.655 40.0199 53.8624 40.0631 54.0549 40.1469C54.2474 40.2307 54.4208 40.3533 54.5647 40.5072C54.7085 40.6612 54.8197 40.8431 54.8914 41.042C54.963 41.2409 54.9937 41.4525 54.9815 41.6637C54.9606 42.2959 55.2507 42.4793 55.7641 42.671C58.2163 43.5982 59.698 45.3494 59.9839 48.0257C60.0925 49.0456 59.5853 49.7874 58.7651 49.9476C58.5482 50.0007 58.3222 50.0046 58.1036 49.9591C57.8849 49.9136 57.6789 49.8199 57.5003 49.6845C57.3218 49.5491 57.1751 49.3756 57.0709 49.1762C56.9666 48.9769 56.9073 48.7567 56.8973 48.5315C56.8055 47.1027 56.0917 46.165 54.8103 45.6739C53.4371 45.1492 52.1348 45.341 51.0099 46.3061C50.1251 47.069 49.7578 48.0573 50.1459 49.2121C50.5988 50.5545 51.6277 51.1804 52.9613 51.3742C53.8086 51.4986 54.6851 51.5133 55.499 51.7514C58.1599 52.5311 59.9777 54.923 60.0006 57.5445C60.0236 60.166 58.2977 62.4714 55.6576 63.3859L55.042 63.603Z" fill="#333333"/>
<path d="M73.76 52.626C73.7266 56.4381 72.9837 59.6328 71.4351 62.6231C70.9822 63.4955 70.137 63.8032 69.3481 63.4217C68.5593 63.0403 68.2525 62.1405 68.6532 61.2112C68.7053 61.091 68.7659 60.9751 68.8222 60.8571C71.097 56.0567 71.2682 51.1824 69.2146 46.2787C67.702 42.5993 64.955 39.5749 61.4552 37.7357L61.0378 37.5123C60.0757 36.9707 59.7501 36.1383 60.1696 35.2975C60.5891 34.4567 61.5262 34.1258 62.434 34.7117C64.1349 35.8096 65.9172 36.8569 67.3843 38.233C71.6229 42.2074 73.639 47.2397 73.76 52.626Z" fill="#333333"/>
<path d="M45.4105 71.8742C44.9931 71.7204 44.6884 71.6382 44.4129 71.5054C36.9791 67.9125 32.3502 59.4411 33.2393 51.1446C33.492 48.6032 34.1991 46.1292 35.3262 43.8427C35.8751 42.7364 36.6869 42.3676 37.5739 42.8101C38.4609 43.2527 38.6487 44.1398 38.1249 45.2483C34.7022 52.4827 36.0796 60.4378 41.8105 65.8325C43.0105 66.9642 44.4943 67.7966 45.8884 68.7027C46.8985 69.3623 47.2387 70.4075 46.5145 71.1957C46.2244 71.516 45.759 71.6677 45.4105 71.8742Z" fill="#333333"/>
<path d="M57.4399 34.1195C57.4527 34.4415 57.3702 34.7601 57.2029 35.0344C57.0355 35.3088 56.791 35.5266 56.5004 35.66C56.2099 35.7933 55.8866 35.8362 55.5719 35.7831C55.2571 35.73 54.9651 35.5833 54.7333 35.3618C54.5015 35.1404 54.3403 34.8541 54.2704 34.5397C54.2005 34.2253 54.225 33.897 54.3408 33.5967C54.4566 33.2964 54.6584 33.0378 54.9205 32.8539C55.1826 32.67 55.493 32.5692 55.8121 32.5643C56.0202 32.5579 56.2276 32.5931 56.4223 32.6678C56.617 32.7426 56.7951 32.8555 56.9463 33.0001C57.0976 33.1446 57.2191 33.3179 57.3038 33.51C57.3885 33.7022 57.4348 33.9093 57.4399 34.1195Z" fill="#333333"/>
<path d="M51.0287 70.496C51.3361 70.4998 51.6357 70.595 51.8898 70.7698C52.1439 70.9446 52.3413 71.1911 52.4573 71.4786C52.5734 71.7661 52.6029 72.0818 52.5421 72.3861C52.4814 72.6905 52.3331 72.97 52.1158 73.1896C51.8986 73.4093 51.622 73.5594 51.3206 73.6212C51.0193 73.6829 50.7067 73.6535 50.4218 73.5367C50.1369 73.42 49.8925 73.2209 49.719 72.9646C49.5456 72.7082 49.4509 72.4059 49.4468 72.0955C49.4462 71.8855 49.4868 71.6774 49.566 71.4832C49.6453 71.2891 49.7618 71.1126 49.9088 70.964C50.0557 70.8154 50.2303 70.6976 50.4225 70.6173C50.6147 70.537 50.8207 70.4958 51.0287 70.496Z" fill="#333333"/>
</g>
<defs>
<clipPath id="clip0_198_785">
<rect width="80" height="80" fill="white"/>
</clipPath>
</defs>
</svg>
