<svg width="80" height="80" viewBox="0 0 80 80" fill="none" xmlns="http://www.w3.org/2000/svg">
<path d="M42.7257 0.00156672C43.3073 0.211303 43.9155 0.364688 44.4641 0.638597C46.8153 1.80936 48.0584 3.73612 48.1806 6.34843C48.2402 7.58963 48.1916 8.83551 48.1916 10.1753H58.3223C61.3194 10.1753 62.868 11.7045 62.868 14.6784C62.868 23.3996 62.8644 32.1214 62.8571 40.8437C62.8571 41.4698 62.9997 41.8047 63.6236 42.0646C66.0266 43.0632 68.3966 44.1384 70.7792 45.1856C70.8983 45.2388 71.0175 45.2904 71.135 45.3421C71.9768 45.7365 72.2809 46.325 71.9893 46.9981C71.6978 47.6711 71.0488 47.8761 70.2039 47.5067C68.1991 46.6365 66.2021 45.7459 64.202 44.8663C61.5372 43.6924 58.8725 42.506 56.1858 41.3712C55.791 41.2213 55.3548 41.2213 54.96 41.3712C48.016 44.3972 41.0814 47.4389 34.1562 50.4963C33.9274 50.5964 33.7126 50.7279 33.327 50.9314C33.5941 51.1063 33.8698 51.2678 34.1531 51.415C36.5561 52.4794 38.9575 53.5468 41.3745 54.5767C41.696 54.6996 42.0516 54.6996 42.373 54.5767C45.0817 53.3653 47.7699 52.11 50.4723 50.886C50.8704 50.7044 51.0632 50.5119 51.0397 50.0236C50.9927 48.9906 51.5789 48.258 52.3831 47.6946C54.1073 46.4831 57.0182 46.4941 58.7487 47.6946C60.5623 48.9577 60.5732 51.1505 58.7142 52.3401C56.9413 53.4748 55.0431 53.5218 53.101 52.7564C52.8596 52.6609 52.5273 52.5514 52.3172 52.6421C49.85 53.7378 47.4 54.8772 44.8262 56.059C45.0785 56.203 45.2149 56.2984 45.3654 56.372C48.5552 57.7807 51.7404 59.1987 54.9475 60.5683C55.346 60.7214 55.7873 60.7214 56.1858 60.5683C63.1267 57.5422 70.0582 54.4927 76.9802 51.4197C77.2059 51.3211 77.416 51.1865 77.8517 50.9502L75.7231 49.9704C75.3608 49.8263 75.0074 49.6606 74.665 49.4742C74.1493 49.1612 73.9079 48.6916 74.1384 48.0749C74.3766 47.4488 74.9048 47.1248 75.5036 47.3565C76.6887 47.8135 77.9207 48.2565 78.9521 48.9639C80.5635 50.0596 80.2532 52.4293 78.4552 53.3261C77.2686 53.9193 76.046 54.4421 74.8171 54.943C74.3468 55.1324 74.2089 55.3859 74.2104 55.8711C74.2293 59.4382 74.1869 63.0053 74.2371 66.5708C74.2575 68.0092 73.7042 69.0751 72.6085 69.9328C71.041 71.1584 69.1992 71.8251 67.3009 72.3119C61.9934 73.6721 56.5902 73.9444 51.1557 73.4764C48.491 73.2479 45.8639 72.7455 43.1051 72.3495C43.2132 72.6218 43.2853 72.9975 43.4891 73.2761C44.5958 74.7881 45.7385 76.275 46.8655 77.7729C47.4925 78.5993 47.48 79.2896 46.8655 79.7544C46.251 80.2193 45.6115 80.0236 44.9673 79.1722C44.4163 78.4096 43.8085 77.6896 43.149 77.0185C43.149 77.5428 43.1615 78.0671 43.149 78.5837C43.1239 79.4398 42.6787 79.961 41.989 79.9798C41.2664 80.0002 40.8103 79.468 40.7899 78.5633C40.7789 78.053 40.7899 77.5412 40.6222 76.9684C39.9858 77.8026 39.3682 78.6478 38.7082 79.4727C38.238 80.0565 37.5875 80.1473 37.0545 79.7575C36.5216 79.3678 36.4275 78.6713 36.8602 78.0264C36.9464 77.8965 37.0467 77.776 37.1407 77.6508C38.2223 76.216 39.3034 74.7813 40.3839 73.3465C41.152 72.3244 40.956 71.4479 39.8995 70.8313C39.2456 70.4569 38.6279 70.0225 38.0546 69.5337C37.6662 69.2032 37.3582 68.7888 37.1539 68.3218C36.9497 67.8548 36.8546 67.3476 36.8758 66.8384C36.9009 64.2872 36.8586 61.7343 36.8994 59.1846C36.9103 58.4897 36.7128 58.3128 36.0247 58.316C27.2394 58.3379 18.4531 58.3415 9.66568 58.3269C5.36761 58.3269 1.88933 55.9087 0.522478 52.0395C-0.0183076 50.5088 -0.0402484 48.9248 0.0271539 47.3346C0.0304925 47.184 0.0641319 47.0357 0.126079 46.8984C0.188026 46.7611 0.277015 46.6377 0.387733 46.5355C0.498452 46.4332 0.628639 46.3543 0.770547 46.3033C0.912456 46.2524 1.06319 46.2305 1.21375 46.2389C1.85015 46.2515 2.31099 46.7007 2.35802 47.3831C2.41602 48.3222 2.35802 49.2613 2.50693 50.1832C3.00069 53.4044 5.76575 55.9024 9.04181 55.9384C15.246 56.0073 21.4517 55.9697 27.6574 55.976H36.7724C36.9856 55.4564 36.8617 55.1934 36.4056 54.9978C35.2519 54.5157 34.1202 53.9882 32.9728 53.4952C31.8254 53.0021 31.1341 52.2211 31.1435 50.9423C31.1529 49.6902 31.863 48.9342 32.9524 48.4537C40.026 45.34 47.099 42.2242 54.1716 39.1064C54.6081 38.9002 55.0854 38.7945 55.5683 38.7969C56.0511 38.7994 56.5273 38.9099 56.9617 39.1204C58.0888 39.6354 59.2283 40.1222 60.4431 40.6559V29.6526L60.3021 29.5195C60.2053 29.678 60.1006 29.8316 59.9886 29.9797C58.3385 32.0206 56.0848 33.4887 53.5493 34.1744C53.0226 34.3184 52.9051 34.5516 52.9223 35.0353C52.9505 35.9744 52.9505 36.9135 52.9223 37.8526C52.8784 39.2707 51.8439 40.2849 50.4143 40.31C49.2935 40.3303 48.1728 40.3209 47.052 40.31C45.4077 40.299 44.3873 39.2879 44.3449 37.6319C44.3246 36.674 44.3449 35.7161 44.3449 34.7113H18.5048C18.5048 35.7146 18.5142 36.6709 18.5048 37.6272C18.486 39.2989 17.4859 40.2975 15.8244 40.31C14.7553 40.3173 13.6863 40.3173 12.6173 40.31C11.0106 40.2975 9.96978 39.2973 9.92276 37.6961C9.89611 36.757 9.94156 35.8179 9.89924 34.8866C9.88827 34.6643 9.708 34.3294 9.52304 34.2605C5.52592 32.7047 5.21243 32.5028 2.37369 29.4319V30.3475C2.37369 34.2793 2.37369 38.2105 2.37369 42.1413C2.38658 42.3752 2.37976 42.6097 2.35331 42.8425C2.24829 43.4685 1.84388 43.8238 1.23256 43.8442C0.621235 43.8645 0.198008 43.5124 0.0537987 42.9051C0.0124972 42.6464 0.00144718 42.3837 0.0208778 42.1225C0.0208778 32.9327 0.0208778 23.7429 0.0208778 14.5532C0.0208778 11.7358 1.58837 10.1706 4.43965 10.1706H14.6926V7.08719C14.6926 3.2963 16.3981 1.08937 20.0801 0.0954745C20.1256 0.0845181 20.1616 0.0359993 20.2024 0.00469539H32.874C33.1295 0.28643 33.501 0.525905 33.617 0.856161C33.9195 1.67163 33.2831 2.34935 32.2658 2.35092C28.6167 2.35092 24.9676 2.34309 21.3184 2.35092C19.2807 2.35874 17.5565 3.51699 17.243 5.42339C16.9953 6.95259 17.1928 8.55378 17.1928 10.108H18.9515V7.08719C18.9515 5.04462 19.7353 4.25733 21.7887 4.25733H41.1034C43.1411 4.25733 43.9249 5.05245 43.9249 7.11068C43.9249 8.11397 43.9249 9.11725 43.9249 10.1111H45.8435C45.8435 8.93412 45.8435 7.8197 45.8435 6.70372C45.8215 4.10237 44.0738 2.36814 41.4545 2.35092C40.0735 2.34153 38.6894 2.39631 37.3116 2.31648C36.9229 2.29301 36.3711 1.97371 36.2253 1.64345C36.0796 1.3132 36.2974 0.788859 36.4103 0.363126C36.4495 0.219128 36.6564 0.12052 36.7865 0L42.7257 0.00156672ZM9.91805 31.8376C9.91805 30.8875 9.8914 30.0032 9.91805 29.122C9.97448 27.5568 11.0153 26.5676 12.5734 26.5551C13.6424 26.5457 14.7115 26.5551 15.7805 26.5551C17.4906 26.5645 18.4828 27.5568 18.5001 29.2769C18.5001 30.2583 18.5001 31.2397 18.5001 32.2508H44.334C44.334 31.1833 44.3105 30.1707 44.334 29.1596C44.381 27.5443 45.4093 26.5629 47.0285 26.5519C48.0975 26.5457 49.1666 26.5457 50.2356 26.5519C51.8924 26.5645 52.9003 27.5662 52.9129 29.2378C52.9239 30.0908 52.9129 30.9439 52.9129 31.8548C53.1339 31.8047 53.2828 31.7812 53.4255 31.7374C57.1483 30.587 60.1657 26.9307 60.3789 23.0443C60.5356 20.2927 60.4635 17.5286 60.4792 14.7707C60.4902 12.9942 60.0293 12.5356 58.2847 12.5356H4.56975C4.30837 12.5253 4.04659 12.5316 3.78601 12.5544C2.98972 12.6562 2.3878 13.2024 2.39093 13.9928C2.4019 17.1921 2.28748 20.4101 2.55708 23.5843C2.88312 27.4097 6.25481 31.0347 9.91805 31.8376ZM43.2258 57.9951C43.1953 58.1144 43.1738 58.2358 43.1615 58.3582C43.1615 61.9488 43.1615 65.5393 43.1443 69.1283C43.1443 69.6777 43.4578 69.7544 43.8449 69.8546C51.4347 71.8064 59.0496 71.8267 66.6441 69.997C68.0878 69.6495 69.4547 68.9421 70.8168 68.3129C71.5708 67.9654 71.8953 67.3127 71.8811 66.4064C71.8294 63.3121 71.8608 60.2146 71.8592 57.1186C71.8592 56.8713 71.8388 56.624 71.8247 56.2969C71.4752 56.4377 71.2118 56.5379 70.9548 56.6506C66.3839 58.6603 61.8053 60.6528 57.2486 62.6923C56.0949 63.2088 55.0369 63.2448 53.8847 62.6923C52.1244 61.8533 50.3218 61.1051 48.5349 60.321L43.2258 57.9951ZM21.3608 6.65677V10.1315H41.5062V6.65677H21.3608ZM40.7977 68.6024V58.1156C40.7977 56.768 40.7052 56.66 39.2569 56.3642V57.225C39.2569 60.2412 39.3086 63.2604 39.2302 66.275C39.1942 67.4395 39.7193 68.0609 40.7914 68.6087L40.7977 68.6024ZM12.3414 28.9389V32.2539H16.1034V28.9389H12.3414ZM46.7652 32.2492H50.5131V28.9342H46.7652V32.2492ZM16.1128 34.6925H12.3618V37.909H16.1128V34.6925ZM46.7589 37.9059H50.5099V34.6956H46.7589V37.9059ZM57.7314 50.0126C56.6482 48.8059 54.1732 48.8575 53.4035 50.0596C54.4522 51.1834 56.7047 51.1771 57.7345 50.0126H57.7314Z" fill="black"/>
</svg>
