<svg width="82" height="82" viewBox="0 0 82 82" fill="none" xmlns="http://www.w3.org/2000/svg">
<g clip-path="url(#clip0_126_230)">
<path d="M0 15.5865C0.000221008 15.553 0.00482495 15.5196 0.0136949 15.4872C0.498152 13.6949 1.40886 12.2295 3.17208 11.4695C3.75486 11.2437 4.35405 11.0629 4.96441 10.9285C5.01538 10.9145 5.06891 10.9125 5.1208 10.9226C5.17269 10.9328 5.22152 10.9548 5.26347 10.987C5.30543 11.0191 5.33936 11.0606 5.36261 11.1081C5.38587 11.1555 5.39781 11.2078 5.39751 11.2606V13.3525C5.3997 13.431 5.37488 13.5078 5.3272 13.5701C5.27952 13.6324 5.21187 13.6765 5.13559 13.6949C3.45968 14.0972 2.73898 15.0182 2.73898 16.7763C2.73898 25.0788 2.73898 33.3802 2.73898 41.6805V57.0222C2.73876 57.0698 2.74793 57.1169 2.76598 57.1609C2.78404 57.205 2.81061 57.245 2.84417 57.2787C2.87773 57.3124 2.91763 57.3392 2.96156 57.3574C3.0055 57.3757 3.05261 57.3851 3.10019 57.3851H46.0491C46.1451 57.3851 46.2372 57.4231 46.3052 57.4908C46.3732 57.5585 46.4116 57.6503 46.4121 57.7463V59.744C46.4121 59.8403 46.3738 59.9326 46.3058 60.0007C46.2377 60.0687 46.1454 60.107 46.0491 60.107H3.11217C3.01712 60.1065 2.92576 60.1437 2.85807 60.2104C2.79038 60.2772 2.75187 60.368 2.75097 60.463C2.73898 61.4371 2.69105 62.3375 2.7698 63.2294C2.88107 64.4534 3.83971 65.359 5.07397 65.5438C5.44457 65.5915 5.81826 65.611 6.19181 65.602H36.4627C36.5587 65.6025 36.6505 65.6409 36.7182 65.7089C36.7859 65.777 36.8239 65.869 36.8239 65.965V68.2161C36.7606 68.2623 36.7366 68.2948 36.7178 68.2914C35.2935 68.0295 34.9426 68.9025 34.6293 70.0614C33.8641 72.8894 32.9739 75.6832 32.1368 78.4924C32.1077 78.5917 32.0803 78.691 32.0547 78.7954C32.0406 78.8483 32.0388 78.9037 32.0494 78.9574C32.0599 79.0112 32.0825 79.0618 32.1155 79.1055C32.1485 79.1492 32.191 79.1848 32.2397 79.2097C32.2885 79.2345 32.3423 79.248 32.397 79.249H54.6821C55.0453 79.249 55.3936 79.3933 55.6505 79.6501C55.9073 79.907 56.0516 80.2553 56.0516 80.6185C56.0516 80.9817 55.9073 81.3301 55.6505 81.5869C55.3936 81.8437 55.0453 81.988 54.6821 81.988H27.3179C26.9547 81.988 26.6064 81.8437 26.3496 81.5869C26.0927 81.3301 25.9484 80.9817 25.9484 80.6185C25.9484 80.2571 26.0913 79.9103 26.3459 79.6538C26.6005 79.3972 26.9462 79.2517 27.3077 79.249C27.65 79.249 27.9821 79.249 28.3108 79.2816C28.9185 79.3312 29.1394 79.0778 29.2917 78.5335C29.7539 76.8661 30.2675 75.2125 30.7622 73.5537C31.2278 71.9993 31.6935 70.4449 32.1813 68.8084C32.1975 68.7546 32.201 68.6978 32.1915 68.6425C32.1819 68.5871 32.1597 68.5347 32.1265 68.4894C32.0934 68.4441 32.0501 68.4072 32.0002 68.3814C31.9503 68.3556 31.8951 68.3418 31.839 68.341H31.2706C22.814 68.341 14.358 68.341 5.90251 68.341C3.46995 68.341 1.62285 67.3653 0.52383 65.1518C0.329931 64.7091 0.164123 64.2545 0.0273898 63.7909C0.0122583 63.7561 0.00300248 63.7191 0 63.6813L0 15.5865Z" fill="#333333"/>
<path d="M10.2199 54.6256H8.88802C8.79593 54.6256 8.70475 54.6074 8.61969 54.5721C8.53463 54.5368 8.45737 54.4851 8.39233 54.4199C8.32729 54.3547 8.27576 54.2773 8.24067 54.1922C8.20559 54.107 8.18764 54.0158 8.18787 53.9237V53.7525C8.18787 37.7911 8.18787 21.8303 8.18787 5.86998C8.18958 2.30417 10.4852 0 14.0373 0C32.0267 0 50.0161 0 68.0055 0C71.4721 0 73.8053 2.30759 73.807 5.75871C73.8162 21.7989 73.8162 37.8396 73.807 53.8809C73.807 54.0666 73.7333 54.2447 73.602 54.376C73.4707 54.5073 73.2926 54.5811 73.1069 54.5811H71.7768C71.5911 54.5811 71.413 54.5073 71.2817 54.376C71.1504 54.2447 71.0766 54.0666 71.0766 53.8809V6.86971C71.0766 6.32576 70.9695 5.78714 70.7612 5.28462C70.553 4.7821 70.2479 4.32553 69.8631 3.94098C69.4784 3.55643 69.0217 3.25144 68.5191 3.04343C68.0165 2.83543 67.4779 2.72849 66.9339 2.72871H14.3129C11.9043 2.72871 10.92 3.71646 10.92 6.13361V53.9237C10.9202 54.0158 10.9023 54.107 10.8672 54.1922C10.8321 54.2773 10.7806 54.3547 10.7155 54.4199C10.6505 54.4851 10.5732 54.5368 10.4882 54.5721C10.4031 54.6074 10.3119 54.6256 10.2199 54.6256Z" fill="#333333"/>
<path d="M61.4747 57.0513C63.303 55.7092 65.1022 55.6818 66.8209 56.9315C67.6648 56.6285 68.4352 56.1988 69.2466 56.0892C69.8124 56.0186 70.3868 56.0687 70.9319 56.2362C71.4769 56.4037 71.9803 56.6848 72.4088 57.0611C72.8373 57.4373 73.1811 57.9001 73.4177 58.4189C73.6543 58.9377 73.7782 59.5008 73.7813 60.071C73.8515 65.0594 73.8156 70.0495 73.8002 75.0396C73.8002 76.0667 73.2079 76.5409 72.0506 76.5409C65.5661 76.5409 59.0816 76.4912 52.5987 76.5768C50.8869 76.5991 49.4814 76.2002 48.1222 75.1389C45.878 73.3859 43.4813 71.8196 41.1874 70.1248C40.4068 69.5662 39.8716 68.7283 39.693 67.7851C39.5145 66.842 39.7064 65.8664 40.2288 65.0611C41.2902 63.3903 43.5567 62.7141 45.2959 63.6129C46.335 64.1521 47.3176 64.8009 48.3276 65.3966C48.5724 65.5404 48.8241 65.6723 49.1836 65.8708V64.9122C49.1836 59.2562 49.1836 53.5996 49.1836 47.9425C49.1836 45.8112 50.4007 44.1764 52.2923 43.7176C52.8831 43.5692 53.4997 43.5554 54.0965 43.6771C54.6934 43.7989 55.2553 44.053 55.7408 44.4209C56.2263 44.7888 56.623 45.261 56.9017 45.8026C57.1803 46.3443 57.3338 46.9416 57.3509 47.5505C57.4296 50.1371 57.3765 52.7271 57.3817 55.3155V56.2382C58.9292 55.8598 60.2456 56.1064 61.4747 57.0513ZM71.0732 73.8122C71.0732 69.1901 71.0852 64.7085 71.0629 60.2285C71.0765 59.8619 70.9456 59.5046 70.6985 59.2334C70.4513 58.9623 70.1077 58.799 69.7413 58.7786C69.0069 58.7478 68.5122 59.2254 68.3462 60.1224C68.3308 60.2011 68.3188 60.2799 68.3017 60.3569C68.1305 61.0708 67.6837 61.4936 66.951 61.4816C66.2183 61.4696 65.7664 61.0639 65.6346 60.3278C65.608 60.1162 65.5662 59.9069 65.5096 59.7013C65.2203 58.8453 64.1863 58.4533 63.505 59.0165C63.1781 59.2887 62.9761 59.792 62.8699 60.2285C62.6885 60.9749 62.3016 61.4268 61.5312 61.4816C60.8157 61.5278 60.3141 61.0434 60.1446 60.2097C60.1234 60.0508 60.0943 59.8931 60.0573 59.7372C59.9747 59.4628 59.8067 59.2219 59.5777 59.0496C59.3487 58.8774 59.0707 58.7827 58.7841 58.7795C58.4976 58.7762 58.2175 58.8646 57.9846 59.0316C57.7517 59.1986 57.5783 59.4356 57.4895 59.7081C57.4039 59.958 57.4656 60.2953 57.3183 60.4785C57.0222 60.8499 56.6695 61.3207 56.2621 61.4166C55.8906 61.5039 55.2846 61.2608 55.0227 60.9561C54.7608 60.6514 54.6718 60.0762 54.6684 59.6191C54.6427 55.853 54.6547 52.0955 54.653 48.3328C54.653 47.0215 54.1394 46.2785 53.2561 46.3111C52.3728 46.3436 51.9208 47.0095 51.9208 48.3105C51.9208 54.8738 51.9208 61.436 51.9208 67.997C51.9208 69.5222 50.8937 70.0974 49.5807 69.3185C47.8843 68.3137 46.1981 67.29 44.5033 66.28C43.6833 65.7921 42.9216 65.8982 42.5381 66.5402C42.1957 67.0965 42.4114 67.6512 43.1783 68.199C45.5938 69.9262 48.0007 71.6638 50.4401 73.3568C50.839 73.6317 51.3114 73.7803 51.7959 73.7831C57.9055 73.8122 64.0152 73.8019 70.1248 73.8019L71.0732 73.8122Z" fill="#333333"/>
<path d="M40.9427 35.5486C34.1996 35.5229 28.6635 29.9165 28.6926 23.1427C28.7199 16.4185 34.2835 10.8994 41.018 10.9114C47.7952 10.9217 53.3434 16.5041 53.304 23.2625C53.2629 30.0518 47.7045 35.5743 40.9427 35.5486ZM33.1006 28.4769L36.7726 25.363C34.9734 22.4528 35.1548 19.7755 37.3426 17.7811C38.2798 16.9308 39.484 16.4337 40.7481 16.3753C42.0122 16.3168 43.2572 16.7008 44.2688 17.461C45.3118 18.2296 46.0415 19.3496 46.323 20.6143C46.7356 22.4306 46.2392 24.038 45.2275 25.351L48.8994 28.4734C51.0991 25.8663 51.5254 20.289 47.8363 16.5349C46.0752 14.7445 43.6817 13.7167 41.1707 13.6725C38.6596 13.6283 36.2315 14.5713 34.4085 16.2987C30.5191 20.01 30.8136 25.678 33.1006 28.4769V28.4769ZM35.1103 30.6629C38.3834 33.6535 44.1541 33.3232 46.8571 30.6372C45.438 28.4734 43.4677 27.3111 40.8502 27.3573C38.3355 27.4018 36.4627 28.5881 35.1103 30.6629ZM38.2739 21.8468C38.2702 22.3849 38.4259 22.9121 38.7214 23.3618C39.0169 23.8115 39.4389 24.1637 39.9342 24.374C40.4296 24.5843 40.9761 24.6432 41.5049 24.5433C42.0336 24.4434 42.521 24.1893 42.9055 23.8128C43.2901 23.4364 43.5546 22.9545 43.6657 22.428C43.7768 21.9015 43.7295 21.3538 43.5298 20.8541C43.3301 20.3544 42.987 19.925 42.5437 19.62C42.1003 19.315 41.5766 19.1481 41.0385 19.1404C40.3133 19.1335 39.6149 19.4146 39.0966 19.922C38.5783 20.4293 38.2824 21.1216 38.2739 21.8468V21.8468Z" fill="#333333"/>
<path d="M59.6345 48.9593C60.2764 47.9014 61.0143 47.0763 61.3138 46.1142C62.079 43.6662 60.2405 41.1875 57.6778 41.006C57.5186 40.9957 57.3577 40.994 57.1968 40.994C46.3881 40.994 35.5782 40.994 24.7673 40.994C22.3142 40.994 20.4876 42.788 20.5013 45.1265C20.5201 47.4358 22.3227 49.1699 24.7638 49.1733C31.5428 49.1847 38.3224 49.1847 45.1025 49.1733H45.7872C45.9504 49.1733 46.1069 49.238 46.2224 49.3532C46.3379 49.4684 46.403 49.6247 46.4035 49.7879V51.3097C46.4031 51.4664 46.3407 51.6165 46.2301 51.7274C46.1195 51.8384 45.9696 51.9011 45.8129 51.902V51.902C38.7669 51.902 31.7208 51.926 24.6748 51.902C20.6862 51.8832 17.7195 48.8395 17.776 44.9296C17.8291 41.3518 20.7718 38.3338 24.3547 38.2807C27.9051 38.2294 31.4555 38.2636 35.0042 38.2636C42.4508 38.2636 49.8974 38.2499 57.3457 38.2636C61.3772 38.2739 64.4363 41.4887 64.2035 45.5048C64.0665 47.8671 62.9213 49.68 60.8208 50.9981C60.3603 50.2158 59.9272 49.4729 59.6345 48.9593Z" fill="#333333"/>
<path d="M76.5871 12.5993C76.5874 12.3752 76.6419 12.1545 76.7459 11.956C76.8499 11.7575 77.0004 11.587 77.1845 11.4592C77.3687 11.3315 77.581 11.2501 77.8033 11.2221C78.0257 11.194 78.2515 11.2202 78.4616 11.2983C79.4452 11.6708 80.3008 12.3186 80.9261 13.1644C81.5515 14.0101 81.9201 15.0179 81.988 16.0676C82 16.2815 81.9983 16.4955 81.9983 16.7095C81.9983 32.0022 81.9983 47.2948 81.9983 62.5875C81.9983 65.1844 80.6048 67.1992 78.4291 67.9644C78.2232 68.0367 78.0031 68.0587 77.7871 68.0287C77.571 67.9987 77.3652 67.9176 77.1869 67.792C77.0085 67.6664 76.8627 67.5 76.7617 67.3067C76.6606 67.1133 76.6072 66.8987 76.6059 66.6805C76.6058 66.4044 76.6897 66.1348 76.8466 65.9076C77.0035 65.6804 77.2259 65.5063 77.4841 65.4086L77.5663 65.3761C78.0468 65.1986 78.4636 64.8821 78.7636 64.4669C79.0636 64.0516 79.2332 63.5565 79.2508 63.0445C79.3004 62.305 79.2798 61.5603 79.2679 60.7643C79.2661 60.5998 79.1994 60.4426 79.0825 60.3269C78.9655 60.2112 78.8076 60.1463 78.643 60.1464H77.9583C77.5951 60.1464 77.2467 60.0021 76.9899 59.7452C76.7331 59.4884 76.5888 59.1401 76.5888 58.7769C76.5888 58.4136 76.7331 58.0653 76.9899 57.8085C77.2467 57.5517 77.5951 57.4074 77.9583 57.4074H78.643C78.7252 57.4076 78.8067 57.3916 78.8827 57.3603C78.9587 57.329 79.0278 57.283 79.086 57.225C79.1442 57.1669 79.1903 57.098 79.2219 57.022C79.2534 56.9461 79.2696 56.8647 79.2696 56.7825V17.2179C79.2696 15.2424 78.9186 14.4789 77.431 13.8764C77.1792 13.7717 76.9643 13.5943 76.814 13.3668C76.6636 13.1393 76.5846 12.872 76.5871 12.5993V12.5993Z" fill="#333333"/>
<path d="M42.319 45.0991C42.319 44.3749 41.7323 43.7878 41.0086 43.7878C40.2848 43.7878 39.6981 44.3749 39.6981 45.0991V45.1025C39.6981 45.8267 40.2848 46.4138 41.0086 46.4138C41.7323 46.4138 42.319 45.8267 42.319 45.1025V45.0991Z" fill="#333333"/>
<path d="M21.816 6.79614C21.816 6.07381 21.2305 5.48825 20.5081 5.48825C19.7858 5.48825 19.2003 6.07381 19.2003 6.79614V6.83552C19.2003 7.55784 19.7858 8.14341 20.5081 8.14341C21.2305 8.14341 21.816 7.55784 21.816 6.83552V6.79614Z" fill="#333333"/>
<path d="M15.0216 5.51221H15.0199C14.3033 5.51221 13.7223 6.09317 13.7223 6.80983V6.86632C13.7223 7.58298 14.3033 8.16394 15.0199 8.16394H15.0216C15.7383 8.16394 16.3192 7.58298 16.3192 6.86632V6.80983C16.3192 6.09317 15.7383 5.51221 15.0216 5.51221Z" fill="#333333"/>
<path d="M25.9929 5.51392H25.9604C25.2381 5.51392 24.6525 6.09948 24.6525 6.82181V6.82352C24.6525 7.54585 25.2381 8.13141 25.9604 8.13141H25.9929C26.7153 8.13141 27.3008 7.54585 27.3008 6.82352V6.82181C27.3008 6.09948 26.7153 5.51392 25.9929 5.51392Z" fill="#333333"/>
<path d="M24.5995 43.7672H24.5978C23.8727 43.7672 23.2848 44.3551 23.2848 45.0802C23.2848 45.8054 23.8727 46.3933 24.5978 46.3933H24.5995C25.3247 46.3933 25.9126 45.8054 25.9126 45.0802C25.9126 44.3551 25.3247 43.7672 24.5995 43.7672Z" fill="#333333"/>
<path d="M30.0689 43.7826H30.0518C29.3313 43.7826 28.7473 44.3667 28.7473 45.0871C28.7473 45.8075 29.3313 46.3916 30.0518 46.3916H30.0689C30.7893 46.3916 31.3734 45.8075 31.3734 45.0871C31.3734 44.3667 30.7893 43.7826 30.0689 43.7826Z" fill="#333333"/>
<path d="M36.8206 45.0803C36.8206 44.357 36.2346 43.7707 35.5118 43.7707C34.789 43.7707 34.2031 44.357 34.2031 45.0803V45.0922C34.2031 45.8155 34.789 46.4018 35.5118 46.4018C36.2346 46.4018 36.8206 45.8155 36.8206 45.0922V45.0803Z" fill="#333333"/>
<path d="M46.5045 43.7946H46.46C45.7395 43.7946 45.1555 44.3786 45.1555 45.0991V45.1008C45.1555 45.8212 45.7395 46.4053 46.46 46.4053H46.5045C47.2249 46.4053 47.809 45.8212 47.809 45.1008V45.0991C47.809 44.3786 47.2249 43.7946 46.5045 43.7946Z" fill="#333333"/>
</g>
<defs>
<clipPath id="clip0_126_230">
<rect width="82" height="82" fill="white"/>
</clipPath>
</defs>
</svg>
