<svg width="82" height="82" viewBox="0 0 82 82" fill="none" xmlns="http://www.w3.org/2000/svg">
<g clip-path="url(#clip0_136_321)">
<path d="M41.0139 79.5848C41.0146 78.9894 41.235 78.4151 41.6329 77.9722C42.0308 77.5292 42.5781 77.2488 43.1699 77.1846C58.9965 75.4891 70.2229 67.4642 75.4038 51.8693C79.5387 39.4433 76.77 27.9526 68.7862 17.7026C68.703 17.5554 68.6118 17.4128 68.513 17.2755V19.4878C68.513 19.979 68.3181 20.4502 67.971 20.7977C67.624 21.1452 67.1533 21.3408 66.6622 21.3413H65.6226C65.1316 21.3408 64.6608 21.1452 64.3138 20.7977C63.9668 20.4502 63.7718 19.979 63.7718 19.4878V9.56025C63.7718 9.44226 63.8186 9.32906 63.9018 9.24542C63.985 9.16179 64.0979 9.11452 64.2159 9.11395H74.1144C74.6013 9.11395 75.0683 9.30744 75.4126 9.65184C75.7569 9.99624 75.9503 10.4634 75.9503 10.9504V12.0181C75.9503 12.5052 75.7569 12.9723 75.4126 13.3167C75.0683 13.6611 74.6013 13.8546 74.1144 13.8546H71.7876C72.0758 14.2283 72.2402 14.4525 72.4174 14.666C77.6452 20.9378 80.7661 28.1192 81.7075 36.2337C81.7993 37.0217 81.9018 37.8075 82 38.5955V43.5625C81.9552 43.776 81.8975 43.9725 81.8676 44.1818C81.588 46.078 81.413 47.9956 81.0244 49.8705C77.737 65.7687 64.1604 78.7734 48.1502 81.3679C46.6281 81.6156 45.0975 81.795 43.5691 82.0085H43.4239C43.1065 82.008 42.7923 81.9448 42.4993 81.8227C42.2064 81.7005 41.9403 81.5217 41.7165 81.2966C41.4926 81.0715 41.3153 80.8044 41.1948 80.5107C41.0742 80.217 41.0127 79.9024 41.0139 79.5848V79.5848Z" fill="#333333"/>
<path d="M41.0139 2.40875C41.0136 3.00324 40.7938 3.57666 40.3966 4.0189C39.9995 4.46113 39.453 4.74097 38.8621 4.80469C22.8177 6.56427 11.5957 14.7856 6.40408 30.6261C2.37165 42.9411 6.11163 55.5721 12.7399 63.4582V62.2047C12.7399 61.5743 12.9902 60.9698 13.4357 60.5241C13.8813 60.0784 14.4856 59.828 15.1158 59.828V59.828C15.4289 59.8263 15.7392 59.8865 16.0289 60.0052C16.3187 60.1239 16.5821 60.2987 16.8041 60.5195C17.0261 60.7404 17.2022 61.003 17.3224 61.2922C17.4426 61.5814 17.5045 61.8915 17.5045 62.2047V71.2396C17.5045 71.4567 17.4184 71.665 17.2652 71.8187C17.1119 71.9724 16.9039 72.0591 16.6869 72.0596H7.6849C7.0576 72.0596 6.45599 71.8104 6.01242 71.3666C5.56885 70.9229 5.31966 70.3211 5.31966 69.6936V69.6936C5.32022 69.0665 5.56967 68.4652 6.01317 68.0219C6.45668 67.5787 7.05797 67.3297 7.6849 67.3297H9.51006C9.29659 67.0179 9.18345 66.8215 9.0447 66.6464C4.29287 60.727 1.43878 53.9897 0.384245 46.4795C0.228412 45.3755 0.130216 44.2629 0 43.1546L0.0533674 38.2688C0.303127 36.5156 0.497384 34.739 0.823992 32.9922C3.87447 16.6563 17.5045 3.32484 33.8712 0.640625C35.3932 0.380104 36.9302 0.213542 38.4522 0H38.6059C39.2446 0 39.857 0.253778 40.3086 0.705507C40.7602 1.15723 41.0139 1.76991 41.0139 2.40875V2.40875Z" fill="#333333"/>
<path d="M38.2559 38.5998C38.2559 37.8609 38.1043 37.5129 37.3123 37.2844C31.9329 35.7234 28.5409 30.3122 29.3499 24.7025C30.1312 19.2914 34.8724 15.1209 40.3521 15.0269C46.0859 14.9266 51.0363 19.0137 51.8795 24.5445C52.333 27.3105 51.7528 30.1467 50.2496 32.5121C48.7464 34.8776 46.4254 36.6067 43.7292 37.3698C43.1486 37.5385 43.2254 37.5833 43.2254 39.1465C43.2254 41.7986 43.076 44.2544 43.076 46.834C43.0677 47.0166 43.077 47.1997 43.1038 47.3806H48.4789C48.9318 47.3806 49.3662 47.5606 49.6865 47.881C50.0068 48.2014 50.1867 48.6359 50.1867 49.089V50.4962C50.1867 50.9493 50.0068 51.3838 49.6865 51.7042C49.3662 52.0245 48.9318 52.2045 48.4789 52.2045H43.1016V57.0156H48.4917C48.9447 57.0156 49.379 57.1956 49.6993 57.516C50.0196 57.8364 50.1995 58.2709 50.1995 58.724V60.0992C50.1995 60.5522 50.0196 60.9868 49.6993 61.3071C49.379 61.6275 48.9447 61.8075 48.4917 61.8075H43.044V64.8889C43.044 65.342 42.8641 65.7765 42.5438 66.0969C42.2235 66.4173 41.7892 66.5972 41.3362 66.5972H38.2409M40.1622 32.9943C41.5002 33.0871 42.8346 32.769 43.9869 32.0823C45.1391 31.3957 46.0543 30.3734 46.6098 29.1522C47.1653 27.931 47.3347 26.5693 47.0954 25.2491C46.856 23.929 46.2193 22.7135 45.2704 21.7653C44.3215 20.8171 43.1057 20.1814 41.7858 19.9434C40.4659 19.7053 39.1047 19.8762 37.8846 20.4332C36.6644 20.9902 35.6434 21.9067 34.9582 23.0601C34.273 24.2135 33.9563 25.5487 34.0505 26.887C34.1708 28.4667 34.8535 29.9508 35.9745 31.0699C37.0956 32.1889 38.5806 32.8687 40.16 32.9858L40.1622 32.9943Z" fill="#333333"/>
</g>
<defs>
<clipPath id="clip0_136_321">
<rect width="82" height="82" fill="white"/>
</clipPath>
</defs>
</svg>
