<?xml version="1.0" standalone="no"?>
<!DOCTYPE svg PUBLIC "-//W3C//DTD SVG 20010904//EN"
 "http://www.w3.org/TR/2001/REC-SVG-20010904/DTD/svg10.dtd">
<svg version="1.0" xmlns="http://www.w3.org/2000/svg"
 width="3808.000000pt" height="3808.000000pt" viewBox="0 0 3808.000000 3808.000000"
 preserveAspectRatio="xMidYMid meet">
<metadata>
Created by potrace 1.14, written by Peter Selinger 2001-2017
</metadata>
<g transform="translate(0.000000,3808.000000) scale(0.100000,-0.100000)"
fill="#000000" stroke="none">
<path d="M18809 34876 c-2 -2 -94 -6 -204 -10 -110 -4 -213 -9 -230 -11 -16
-2 -77 -6 -135 -10 -157 -9 -343 -24 -590 -50 -48 -5 -197 -22 -270 -31 -61
-8 -519 -73 -550 -78 -14 -3 -95 -17 -180 -31 -856 -144 -1955 -431 -2675
-700 -1724 -642 -3296 -1541 -4640 -2654 -133 -110 -442 -377 -476 -410 -9 -9
-53 -50 -99 -91 -252 -226 -740 -716 -966 -970 -27 -30 -74 -82 -104 -115
-267 -291 -768 -915 -1013 -1262 -332 -470 -504 -730 -742 -1123 -297 -491
-611 -1071 -770 -1425 -482 -1072 -866 -2220 -1095 -3270 -16 -77 -34 -158
-40 -180 -13 -55 -85 -434 -109 -580 -82 -491 -152 -1078 -176 -1475 -4 -58
-8 -114 -10 -126 -27 -178 -27 -1539 0 -1864 3 -30 10 -122 15 -205 6 -82 13
-170 16 -195 2 -25 11 -115 20 -200 21 -209 22 -227 40 -365 8 -66 18 -138 20
-160 10 -79 58 -393 74 -485 6 -30 22 -120 36 -200 149 -850 438 -1933 697
-2610 782 -2049 1881 -3829 3287 -5324 227 -242 681 -686 865 -847 27 -24 75
-67 105 -95 293 -271 983 -817 1366 -1082 11 -7 48 -33 84 -58 363 -256 942
-618 1365 -854 530 -295 865 -460 1335 -656 85 -36 191 -81 235 -99 44 -19
112 -46 150 -60 39 -15 121 -47 184 -71 326 -128 913 -326 1331 -448 656 -192
1563 -387 2185 -470 343 -46 713 -84 1015 -106 431 -30 580 -35 1040 -35 383
0 741 8 890 20 30 2 96 7 145 10 122 8 341 25 390 30 22 2 69 7 105 10 76 7
414 44 450 50 14 2 43 6 65 9 1097 144 2394 456 3305 796 308 116 909 361 979
401 9 5 57 26 106 48 136 59 205 91 520 247 338 167 398 199 840 444 348 192
1128 696 1421 917 16 12 105 78 199 148 403 302 752 593 1164 970 360 329 866
850 1166 1200 33 39 62 72 65 75 13 13 122 142 170 200 649 800 1115 1473
1590 2295 95 164 301 539 360 655 18 36 48 92 66 125 78 143 325 711 477 1095
419 1061 733 2170 911 3215 14 83 28 161 30 175 34 186 99 705 121 955 3 39 8
81 10 95 2 14 7 70 10 125 3 55 8 111 10 125 2 14 7 81 11 150 3 69 8 150 10
180 16 255 22 871 11 1238 -7 227 -10 294 -28 552 -17 266 -17 263 -44 535
-10 100 -22 205 -30 265 -3 19 -7 54 -10 78 -12 100 -16 131 -26 202 -6 41
-12 86 -14 100 -3 14 -7 43 -10 65 -146 986 -453 2223 -750 3015 -356 949
-816 1910 -1318 2750 -393 658 -829 1277 -1326 1885 -99 121 -225 269 -241
285 -3 3 -37 41 -74 85 -289 335 -871 927 -1206 1225 -52 46 -102 91 -111 100
-21 21 -296 257 -398 343 -235 196 -612 485 -913 700 -506 361 -1157 768
-1673 1047 -44 23 -102 55 -130 70 -346 189 -606 312 -1095 515 -1267 528
-2562 898 -3837 1094 -334 52 -556 80 -863 111 -175 17 -201 19 -315 26 -60 3
-120 7 -132 9 -12 2 -88 6 -170 10 -81 4 -161 9 -178 11 -36 6 -1090 15 -1096
10z m796 -600 c193 -3 361 -8 375 -10 14 -2 90 -7 169 -11 80 -4 154 -8 165
-10 12 -2 64 -6 116 -10 131 -8 453 -41 640 -65 85 -11 175 -22 200 -25 308
-37 980 -165 1425 -271 1152 -275 2558 -791 3400 -1249 394 -214 638 -354 905
-517 1005 -615 1911 -1315 2703 -2088 348 -339 489 -488 828 -870 179 -202
456 -546 665 -825 869 -1158 1568 -2445 2112 -3886 287 -760 585 -1941 727
-2884 14 -93 27 -181 30 -195 2 -14 6 -47 9 -75 4 -27 13 -99 21 -160 7 -60
16 -137 20 -170 3 -33 8 -78 10 -100 10 -87 15 -135 25 -250 6 -66 12 -140 15
-165 2 -25 7 -101 10 -170 4 -69 8 -136 10 -149 24 -155 24 -1450 0 -1621 -2
-14 -6 -79 -10 -145 -3 -66 -8 -138 -10 -160 -3 -22 -12 -119 -20 -215 -9 -96
-18 -191 -20 -210 -2 -19 -16 -129 -30 -245 -14 -115 -27 -221 -30 -235 -2
-14 -11 -74 -20 -135 -206 -1372 -635 -2806 -1244 -4160 -177 -392 -554 -1074
-886 -1600 -168 -266 -463 -702 -604 -891 -25 -35 -74 -100 -108 -146 -33 -46
-87 -117 -120 -159 -32 -41 -78 -102 -103 -135 -25 -32 -47 -61 -50 -64 -3 -3
-23 -27 -45 -55 -22 -27 -47 -59 -56 -70 -127 -154 -175 -212 -184 -221 -5 -6
-19 -22 -30 -35 -69 -84 -139 -165 -205 -239 -42 -47 -92 -102 -111 -124 -104
-117 -207 -225 -414 -436 -206 -208 -370 -369 -519 -505 -60 -55 -117 -107
-126 -115 -49 -46 -330 -289 -395 -341 -11 -10 -49 -41 -85 -71 -949 -791
-2146 -1531 -3380 -2090 -776 -352 -1373 -566 -2197 -789 -278 -75 -863 -211
-1048 -243 -16 -3 -75 -14 -130 -25 -229 -45 -793 -133 -1000 -155 -27 -3 -88
-10 -135 -15 -47 -6 -112 -13 -145 -16 -33 -3 -78 -8 -100 -10 -50 -5 -403
-33 -510 -39 -221 -15 -491 -21 -885 -21 -374 0 -795 10 -849 20 -9 1 -68 6
-131 9 -63 4 -133 9 -155 11 -22 2 -76 7 -120 10 -44 4 -93 8 -110 10 -16 2
-82 9 -145 15 -63 6 -144 15 -180 20 -36 5 -87 12 -115 15 -466 53 -1120 175
-1690 315 -303 74 -364 91 -675 182 -921 269 -1970 683 -2635 1040 -249 134
-281 152 -430 236 -1202 679 -2268 1474 -3213 2397 -200 195 -165 160 -302
301 -827 856 -1551 1822 -2162 2884 -83 144 -131 231 -273 495 -18 33 -91 177
-163 320 -311 622 -617 1346 -785 1861 -235 714 -418 1436 -547 2149 -53 294
-63 354 -105 640 -13 92 -46 370 -60 500 -21 205 -23 228 -31 325 -3 47 -8
101 -10 120 -1 19 -6 94 -9 165 -4 72 -8 141 -11 155 -21 137 -21 1342 0 1540
3 19 7 85 11 145 7 134 24 343 40 505 7 72 35 322 39 355 3 17 12 86 21 155
41 311 151 929 210 1187 46 202 129 543 155 643 253 952 669 2082 1037 2815
379 755 821 1486 1302 2153 53 74 103 143 111 155 83 120 449 583 634 802 421
496 954 1043 1411 1445 72 63 135 119 141 125 302 273 857 701 1324 1022 274
188 879 569 980 617 8 4 24 12 35 19 271 165 913 495 1350 694 405 185 1048
446 1255 511 36 11 151 47 256 81 695 219 1472 406 2179 525 145 24 517 79
620 91 28 3 61 8 75 10 14 2 50 7 80 10 30 3 75 8 100 10 25 3 68 7 95 10 28
3 70 7 95 10 88 10 136 14 240 20 58 4 112 8 120 10 8 2 83 6 165 10 83 4 161
9 175 11 14 1 162 6 330 10 168 4 306 8 308 9 2 2 11 1 20 0 9 -2 175 -6 367
-9z"/>
<path d="M18948 33385 c-2 -2 -84 -6 -183 -10 -180 -6 -216 -8 -395 -20 -162
-12 -173 -12 -250 -20 -111 -10 -157 -14 -240 -20 -41 -3 -82 -8 -90 -10 -14
-4 -43 -7 -165 -20 -27 -3 -59 -7 -70 -9 -11 -2 -49 -7 -85 -11 -36 -4 -72 -9
-81 -10 -9 -2 -40 -6 -70 -10 -30 -4 -90 -13 -134 -20 -44 -8 -100 -17 -125
-20 -25 -3 -81 -12 -125 -20 -44 -8 -96 -17 -115 -20 -28 -5 -181 -34 -261
-50 -9 -2 -32 -6 -50 -9 -19 -3 -86 -17 -149 -31 -63 -14 -126 -28 -140 -30
-58 -12 -136 -30 -310 -72 -102 -24 -192 -46 -200 -48 -27 -6 -164 -43 -221
-59 -31 -9 -65 -18 -75 -20 -17 -4 -74 -20 -214 -61 -25 -7 -79 -23 -120 -35
-41 -12 -86 -25 -100 -30 -14 -5 -86 -27 -160 -50 -185 -58 -361 -119 -455
-159 -11 -5 -92 -37 -180 -71 -184 -72 -537 -222 -674 -286 -51 -24 -95 -44
-96 -44 -20 0 -760 -370 -880 -440 -16 -9 -59 -33 -95 -52 -102 -55 -162 -89
-200 -113 -19 -12 -42 -24 -50 -28 -8 -4 -32 -17 -52 -29 -21 -13 -95 -58
-165 -100 -601 -361 -1187 -777 -1723 -1222 -80 -66 -147 -123 -150 -126 -3
-3 -39 -35 -82 -72 -42 -36 -91 -79 -110 -96 -18 -17 -42 -39 -54 -49 -110
-96 -263 -242 -499 -478 -301 -300 -430 -436 -621 -655 -21 -25 -41 -47 -44
-50 -3 -3 -43 -50 -90 -105 -47 -55 -87 -102 -91 -105 -5 -4 -93 -113 -250
-310 -135 -169 -323 -422 -481 -645 -96 -138 -319 -466 -343 -507 -5 -10 -32
-53 -59 -95 -331 -523 -700 -1191 -866 -1568 -34 -77 -70 -158 -80 -180 -36
-81 -210 -507 -210 -516 0 -5 -4 -17 -10 -27 -8 -14 -27 -57 -35 -82 -1 -3 -4
-12 -8 -20 -34 -85 -152 -416 -220 -620 -72 -215 -222 -699 -232 -750 -2 -8
-22 -85 -45 -170 -23 -85 -44 -163 -46 -173 -2 -10 -6 -27 -9 -37 -3 -10 -7
-27 -9 -37 -2 -10 -9 -36 -15 -58 -5 -22 -13 -55 -16 -74 -3 -19 -8 -38 -10
-42 -3 -4 -14 -49 -25 -101 -11 -51 -29 -136 -41 -188 -11 -52 -22 -105 -24
-117 -2 -12 -6 -34 -9 -50 -4 -15 -9 -41 -12 -58 -3 -16 -7 -34 -8 -40 -2 -5
-7 -32 -11 -60 -5 -27 -10 -52 -10 -55 -3 -10 -15 -76 -19 -100 -2 -14 -7 -41
-10 -60 -3 -19 -8 -48 -11 -65 -3 -16 -10 -59 -16 -95 -6 -36 -13 -78 -15 -95
-3 -16 -9 -59 -14 -95 -5 -36 -12 -83 -15 -105 -3 -23 -7 -50 -9 -62 -3 -12
-8 -53 -11 -90 -4 -37 -9 -75 -10 -83 -2 -8 -6 -44 -9 -80 -4 -36 -9 -76 -11
-90 -2 -14 -7 -54 -10 -90 -3 -36 -7 -85 -10 -110 -2 -25 -7 -74 -10 -110 -3
-36 -8 -85 -10 -110 -2 -25 -7 -97 -11 -160 -4 -63 -8 -131 -9 -150 -9 -149
-18 -501 -18 -725 0 -262 10 -693 17 -731 2 -11 7 -81 11 -158 3 -76 8 -152
10 -170 2 -17 6 -67 10 -111 10 -130 15 -188 20 -215 2 -14 7 -56 11 -95 10
-106 20 -196 29 -245 2 -14 6 -47 9 -75 8 -78 16 -135 26 -195 6 -30 12 -68
14 -85 20 -143 28 -195 46 -292 11 -62 22 -123 24 -135 3 -13 8 -39 11 -58 2
-19 7 -46 10 -60 3 -14 8 -36 11 -50 10 -51 56 -276 59 -290 2 -8 13 -58 25
-110 12 -52 24 -106 26 -120 5 -27 136 -537 173 -672 73 -265 207 -686 291
-908 113 -301 301 -753 414 -993 25 -55 46 -101 46 -103 0 -3 70 -145 155
-317 176 -355 259 -514 396 -754 33 -57 59 -105 59 -108 0 -3 8 -18 19 -33 10
-15 63 -101 116 -192 182 -307 430 -685 638 -973 56 -78 114 -158 127 -177 14
-19 27 -37 30 -40 3 -3 50 -63 105 -135 256 -335 465 -585 782 -931 286 -314
725 -743 1043 -1020 25 -21 47 -41 50 -44 26 -29 440 -369 540 -445 36 -27 67
-52 70 -55 11 -14 335 -253 500 -370 164 -116 489 -333 610 -409 30 -19 78
-48 105 -66 150 -96 542 -326 710 -415 44 -24 85 -46 90 -50 15 -11 201 -108
375 -197 148 -74 182 -91 345 -163 39 -17 88 -40 110 -50 69 -33 320 -138 555
-232 217 -87 335 -131 600 -224 69 -24 126 -44 128 -45 1 -1 5 -2 10 -3 4 -1
63 -21 132 -43 223 -75 506 -159 745 -223 44 -12 105 -28 135 -36 30 -9 66
-17 80 -20 14 -3 88 -21 165 -40 77 -20 158 -39 180 -44 22 -4 128 -26 235
-49 182 -38 474 -93 565 -106 22 -4 51 -8 65 -11 14 -2 45 -7 70 -10 25 -3 52
-8 62 -9 9 -2 38 -6 65 -10 26 -4 59 -9 73 -11 68 -11 377 -48 490 -59 55 -5
107 -11 198 -20 45 -5 82 -7 272 -20 47 -3 110 -8 140 -10 225 -19 1020 -25
1330 -11 96 5 195 10 220 11 58 3 255 16 300 20 19 2 73 6 120 10 47 3 103 8
125 11 22 2 63 7 90 9 51 5 121 12 185 20 19 3 55 7 80 10 85 9 143 17 160 20
9 2 41 6 71 10 30 3 65 8 79 10 14 2 43 7 65 10 23 3 52 8 65 10 14 3 45 8 70
11 25 3 52 7 60 9 8 1 35 6 60 10 86 13 95 15 150 25 30 6 71 13 90 16 19 2
55 9 80 14 25 5 56 12 70 14 276 49 1064 234 1241 292 25 8 54 16 65 19 10 2
60 15 109 30 50 15 126 37 170 50 415 122 901 308 1465 560 274 122 697 328
890 433 36 19 88 47 115 62 28 15 86 47 130 70 44 23 92 51 107 61 14 11 29
19 32 19 3 0 27 13 54 29 26 15 68 39 93 53 467 265 1165 741 1644 1123 160
127 441 361 475 395 3 3 39 34 80 70 41 36 77 68 80 71 3 3 34 31 70 64 276
248 708 682 950 956 36 40 76 85 90 99 14 14 47 53 75 86 27 32 52 61 55 64
10 9 125 146 155 184 17 21 38 48 49 60 10 11 30 37 45 56 14 19 33 42 41 50
19 18 140 175 306 395 389 516 823 1190 1142 1775 22 41 57 104 76 140 20 36
68 127 106 202 38 75 78 151 88 170 21 36 185 403 252 563 23 55 48 114 55
130 138 317 389 1025 520 1465 53 178 144 503 151 540 3 14 9 39 14 55 5 17
11 41 14 55 2 14 13 61 25 106 11 44 28 114 37 155 8 41 18 83 20 94 3 11 7
31 10 45 3 14 13 61 24 105 10 44 21 96 24 115 3 19 13 71 21 115 37 182 85
473 110 655 3 25 8 52 10 60 4 15 13 82 20 150 2 19 11 91 19 160 16 134 25
215 31 295 2 28 6 75 9 105 20 213 29 354 42 690 13 346 8 934 -11 1220 -2 30
-6 100 -10 155 -3 55 -7 116 -9 135 -2 19 -7 78 -11 130 -4 52 -8 106 -10 120
-1 14 -6 57 -9 95 -4 39 -9 81 -11 95 -2 14 -6 55 -10 92 -3 37 -8 75 -10 86
-2 10 -6 43 -9 73 -10 91 -21 176 -36 274 -5 33 -12 78 -15 100 -9 60 -24 157
-30 185 -2 14 -11 68 -20 120 -16 100 -20 122 -60 320 -13 69 -27 137 -29 153
-3 15 -7 35 -10 45 -3 9 -7 29 -10 44 -2 14 -19 88 -36 165 -18 76 -33 145
-35 153 -2 8 -15 62 -30 120 -14 58 -28 114 -30 124 -29 134 -167 616 -262
916 -72 227 -279 771 -368 965 -7 17 -32 75 -55 130 -24 55 -67 151 -96 214
-30 62 -54 115 -54 116 0 23 -343 706 -451 898 -22 38 -39 70 -39 72 0 2 -32
59 -71 127 -39 67 -81 141 -94 164 -44 78 -209 349 -257 422 -26 41 -48 76
-48 78 0 7 -247 377 -339 507 -1067 1517 -2368 2752 -3966 3767 -121 77 -455
280 -460 280 -3 0 -38 20 -78 45 -41 25 -78 45 -82 45 -4 0 -19 8 -33 19 -15
10 -54 33 -87 51 -33 18 -85 46 -115 63 -30 16 -75 41 -100 55 -90 50 -567
289 -630 316 -36 15 -173 74 -305 131 -132 56 -330 137 -440 179 -110 43 -209
82 -220 87 -134 62 -961 328 -1330 428 -249 67 -778 191 -925 217 -14 2 -72
13 -130 24 -58 11 -116 21 -130 24 -23 4 -74 13 -125 22 -11 2 -65 11 -120 19
-55 8 -111 17 -125 20 -35 6 -225 33 -285 40 -112 13 -141 17 -165 20 -14 3
-52 7 -85 10 -33 3 -73 8 -90 10 -16 2 -66 6 -110 10 -44 3 -91 8 -105 10 -14
3 -74 7 -135 11 -60 3 -126 7 -146 9 -19 2 -80 6 -135 9 -54 3 -148 8 -209 12
-109 6 -912 14 -917 9z"/>
</g>
</svg>
