<svg width="80" height="79" viewBox="0 0 80 79" fill="none" xmlns="http://www.w3.org/2000/svg">
<path d="M79.989 68.2266C79.3895 70.012 78.1106 70.6309 76.3121 70.6008C72.5552 70.5391 68.8125 70.5834 65.0635 70.5786C64.7523 70.5907 64.4409 70.5625 64.1368 70.4947C63.8767 70.441 63.6462 70.2901 63.4913 70.0721C63.3363 69.8542 63.2684 69.5851 63.3009 69.3187C63.304 69.0505 63.4044 68.7927 63.583 68.5943C63.7616 68.396 64.006 68.2707 64.2699 68.2425C64.5294 68.21 64.7913 68.2 65.0525 68.2124H76.5359C77.5659 68.2124 77.6473 68.1269 77.6473 67.0823C77.6473 48.3856 77.6473 29.6878 77.6473 10.989C77.6473 9.9697 77.5784 9.90006 76.5907 9.89689C75.8894 9.89689 75.1819 9.89689 74.3726 9.89689V62.9924C74.3726 64.5831 74.0595 64.8997 72.5192 64.8997C65.7225 64.8997 58.9258 64.9171 52.1291 64.8997C48.1656 64.8854 44.9676 66.3859 42.5429 69.5862C41.0386 71.5726 38.952 71.5837 37.4587 69.61C35.0183 66.3827 31.7984 64.8807 27.8036 64.8981C21.0335 64.9266 14.2634 64.906 7.4933 64.906C5.91856 64.906 5.61489 64.5894 5.61489 63.0288C5.61489 45.6732 5.61489 28.3187 5.61489 10.9653V9.91272C4.67568 9.91272 3.77718 9.88107 2.8818 9.93963C2.6924 9.95229 2.46541 10.2704 2.36366 10.4968C2.27601 10.6946 2.34018 10.9621 2.34018 11.1995C2.34018 29.7707 2.34018 48.337 2.34018 66.8987C2.34018 68.2013 2.35427 68.2171 3.65507 68.2171C11.7813 68.2171 19.906 68.2171 28.029 68.2171C31.7749 68.2171 34.5691 69.8775 36.2862 73.282C36.5585 73.8779 36.7902 74.4918 36.9797 75.1196C37.3334 76.1405 38.0472 76.6327 39.1039 76.6454C39.1555 76.6454 39.2072 76.6454 39.2604 76.6454C41.5959 76.6074 42.3707 77.0791 43.5275 73.7869C44.6999 70.4441 47.3642 68.5527 50.8846 68.2947C53.5457 68.0968 56.2459 68.2203 58.9273 68.2282C59.6521 68.2282 60.1515 68.7553 60.1483 69.3979C60.1483 70.0943 59.6145 70.5786 58.7646 70.5834C56.4687 70.5992 54.1771 70.5992 51.8896 70.5834C50.5812 70.5477 49.2911 70.8999 48.1781 71.5963C46.6723 72.5602 45.7863 73.961 45.301 75.6704C44.8314 77.345 43.7748 78.5669 42.067 78.8359C40.7069 79.0509 39.3224 79.0546 37.9611 78.847C36.2549 78.5811 35.1811 77.3719 34.7052 75.6989C34.22 73.9895 33.3465 72.5824 31.8469 71.6106C30.6682 70.8461 29.3705 70.5755 27.9836 70.577C21.4217 70.5886 14.8598 70.5886 8.29789 70.577C6.60419 70.577 4.91204 70.585 3.2199 70.577C1.18496 70.5644 0 69.3757 0 67.3434C0 48.4558 0 29.5733 0 10.6962C0 8.72723 1.16619 7.54807 3.09625 7.518C3.3561 7.518 3.61751 7.50217 3.87893 7.518C5.05293 7.59555 6.09232 7.58131 6.88908 6.37049C7.55905 5.35435 8.78314 5.1755 9.9775 5.17709C15.4197 5.18658 20.8619 5.18394 26.304 5.16917C26.7928 5.16253 27.2757 5.06153 27.7269 4.8716C31.1065 3.43603 34.4814 1.98939 37.8406 0.506338C39.395 -0.177418 40.8899 -0.164756 42.4427 0.520582C45.8004 2.00522 49.1737 3.4487 52.5564 4.88427C52.9829 5.06582 53.4399 5.16255 53.9026 5.16917C59.1888 5.18816 64.4765 5.2024 69.7627 5.16917C71.4845 5.15809 72.8699 5.6535 73.8216 7.17612C73.9 7.26816 73.9958 7.34353 74.1033 7.39787C74.2108 7.45221 74.3278 7.48444 74.4477 7.49268C75.0452 7.54253 75.6457 7.54253 76.2432 7.49268C78.0371 7.3344 79.3175 8.00391 80 9.73546L79.989 68.2266ZM28.2857 20.3764C28.2554 20.4965 28.234 20.6187 28.2216 20.742C28.2216 24.5074 28.2106 28.2744 28.2216 32.0398C28.2216 32.8486 28.5346 33.1114 29.4269 33.1129C36.8487 33.1129 44.2705 33.1129 51.6923 33.1129C52.583 33.1129 52.8695 32.8217 52.8883 31.9322C52.9086 31.011 52.8789 30.0883 52.9023 29.1671C52.9227 28.3456 53.3719 27.8344 54.0216 27.8107C54.6712 27.7869 55.1971 28.3251 55.2284 29.175C55.2597 30.025 55.2425 30.8607 55.2378 31.7074C55.2253 34.224 53.973 35.4855 51.481 35.4918C48.3305 35.4918 45.1795 35.4918 42.0279 35.4918C41.754 35.4918 41.48 35.514 41.2343 35.5267V67.3403C41.3433 67.2591 41.4478 67.1719 41.5474 67.0791C44.462 63.8851 48.0952 62.4891 52.3607 62.5255C58.5845 62.5746 64.8099 62.5382 71.0337 62.5382H72.023V9.76711C72.023 8.14478 71.4579 7.56232 69.8785 7.56073C66.4671 7.56073 63.0557 7.56073 59.6443 7.56073C59.458 7.56073 59.2717 7.5813 59.0854 7.59238C59.2811 7.78623 59.5146 7.93664 59.7711 8.03398C61.8264 8.92666 63.8879 9.80035 65.9323 10.7136C67.2659 11.3087 67.6542 12.7712 66.7322 13.7209C66.3877 14.0383 65.9866 14.2865 65.5503 14.4521C62.4478 15.8085 59.3484 17.1729 56.2209 18.4644C55.4382 18.781 55.1658 19.1909 55.2206 20.025C55.2772 21.1322 55.2772 22.2416 55.2206 23.3488C55.1909 24.1561 54.6853 24.6372 54.0137 24.6151C53.3422 24.5929 52.9477 24.126 52.9008 23.3488C52.8804 23.007 52.9008 22.6635 52.9008 22.3216C52.9008 21.573 52.9008 20.8227 52.9008 19.976C52.5282 20.1342 52.2903 20.2181 52.0571 20.3194C48.8278 21.7107 45.5922 23.0861 42.3754 24.5027C41.6667 24.8354 40.8948 25.0078 40.1135 25.0078C39.3322 25.0078 38.5602 24.8354 37.8516 24.5027C35.0903 23.2776 32.3087 22.0953 29.5349 20.8987C29.1248 20.7135 28.7178 20.5553 28.2811 20.3748L28.2857 20.3764ZM16.5613 25.9667C16.7852 26.0554 17.0028 26.1345 17.2156 26.2263C18.2403 26.6747 19.0775 27.4717 19.5819 28.4789C20.0862 29.4862 20.226 30.6401 19.9769 31.7407C19.4885 33.9201 17.4066 35.5599 15.248 35.4665C14.1452 35.4323 13.0874 35.0159 12.2519 34.2872C11.4164 33.5585 10.8538 32.5617 10.6584 31.4637C10.2655 29.2193 11.4802 27.0699 13.6764 26.1725C14.0317 26.0269 14.1977 25.867 14.1961 25.446C14.1789 21.8911 14.1961 18.3378 14.1742 14.7829C14.1737 14.5356 14.0809 14.2976 13.9143 14.1166C12.5055 12.8503 12.7231 11.3958 14.47 10.6345C16.505 9.74495 18.5399 8.87601 20.5623 7.99441C20.7752 7.90261 20.9772 7.78707 21.1885 7.67786C17.488 7.55757 13.8439 7.55598 10.2014 7.55757C8.47947 7.55757 7.94882 8.08779 7.94882 9.81143V62.5287H8.96786C15.32 62.5287 21.6722 62.5397 28.0243 62.5287C31.1175 62.5287 33.9335 63.3675 36.4162 65.24C37.216 65.8446 37.9314 66.5663 38.7517 67.2975V35.4855H37.8625C35.1294 35.4855 32.3958 35.4855 29.6617 35.4855C27.0977 35.4855 25.8736 34.2557 25.8704 31.6758C25.8704 27.8581 25.8516 24.0405 25.8861 20.2229C25.8861 19.5455 25.7108 19.202 25.0721 18.9408C22.7617 17.9912 20.4778 16.9719 18.1846 15.9826C17.6649 15.7579 17.1421 15.5426 16.566 15.2989L16.5613 25.9667ZM64.057 12.5243C63.7799 12.3818 63.5874 12.2647 63.3682 12.1729C56.0633 9.00738 48.7531 5.84184 41.4378 2.67631C41.0126 2.48112 40.5506 2.38199 40.0837 2.38582C39.6168 2.38964 39.1563 2.49633 38.7344 2.69847C32.4574 5.43454 26.1752 8.15849 19.8877 10.8703C19.6607 10.9684 19.4431 11.0856 19.2209 11.1869L19.2459 11.323H39.3559C39.6168 11.3131 39.878 11.3168 40.1385 11.334C40.7897 11.4021 41.2061 11.7519 41.2452 12.442C41.2844 13.1321 40.8977 13.523 40.2622 13.6575C39.9789 13.701 39.692 13.7142 39.406 13.6971H20.0364C19.7734 13.6971 19.5089 13.7193 19.0393 13.7414C19.4478 13.9361 19.6513 14.0406 19.8611 14.1324C26.1225 16.8389 32.3838 19.5312 38.6452 22.2662C39.6862 22.7221 40.6113 22.7015 41.6366 22.2488C45.5499 20.5252 49.4633 18.849 53.3892 17.1523L64.057 12.5243ZM12.9423 30.6565C12.9445 31.2955 13.1933 31.9083 13.6356 32.3647C14.0779 32.8211 14.6789 33.085 15.3106 33.1003C15.9564 33.1008 16.5764 32.8444 17.0368 32.3866C17.4972 31.9288 17.7611 31.3062 17.7713 30.6533C17.7679 30.3304 17.7013 30.0114 17.5756 29.7145C17.4498 29.4177 17.2673 29.1489 17.0385 28.9236C16.8097 28.6983 16.5392 28.5209 16.2424 28.4016C15.9456 28.2823 15.6284 28.2235 15.3091 28.2285C14.6769 28.2335 14.0726 28.4921 13.6288 28.9473C13.185 29.4025 12.9381 30.0173 12.9423 30.6565V30.6565Z" fill="#333333"/>
<path d="M56.8841 41.8506C53.8796 41.8506 50.8757 41.8506 47.8723 41.8506C47.5785 41.8506 47.1992 41.9507 47.0071 41.7789C46.6359 41.4485 46.171 40.9878 46.121 40.5233C46.0774 40.1174 46.4745 39.5283 46.8118 39.2205C47.0636 38.9902 47.5269 39.0317 47.8981 39.0317C53.906 39.0217 59.9144 39.0217 65.9233 39.0317C66.0847 39.0317 66.2461 39.0317 66.4075 39.0317C67.284 39.0997 67.7941 39.6605 67.7634 40.5176C67.7344 41.3295 67.2308 41.8393 66.3817 41.8393C63.2148 41.8582 60.0494 41.8506 56.8841 41.8506Z" fill="#333333"/>
<path d="M56.9967 45.7139C60.0286 45.7139 63.0606 45.7139 66.0925 45.7139C66.3589 45.7139 66.7092 45.6213 66.8771 45.7781C67.242 46.1201 67.736 46.5773 67.7635 47.0213C67.7909 47.4653 67.3679 48.0207 67.0289 48.3816C66.8368 48.5856 66.417 48.5346 66.099 48.5365C60.0093 48.5441 53.919 48.5441 47.8282 48.5365C47.7475 48.5365 47.6668 48.5365 47.586 48.5365C46.6674 48.4968 46.0927 47.9206 46.1185 47.0685C46.1443 46.2165 46.6836 45.7139 47.5715 45.712C50.7213 45.7082 53.8598 45.7139 56.9967 45.7139Z" fill="#333333"/>
<path d="M57.0314 55.181C54.0237 55.181 51.0156 55.181 48.0069 55.181C47.6825 55.193 47.3578 55.1702 47.037 55.1129C46.4195 54.9785 46.0332 54.4277 46.1334 53.7879C46.2094 53.3014 46.6281 52.8415 46.9837 52.4838C47.1696 52.2945 47.551 52.3607 47.8436 52.3607C53.9127 52.3531 59.9829 52.3531 66.0542 52.3607C66.3775 52.3607 66.7897 52.2983 66.9901 52.4989C67.3393 52.8453 67.7789 53.3866 67.7644 53.8239C67.7498 54.2611 67.2795 54.7703 66.9125 55.0864C66.6959 55.2756 66.2902 55.181 65.9685 55.1829C62.9975 55.1842 60.0185 55.1835 57.0314 55.181Z" fill="#333333"/>
<path d="M22.577 41.8727H13.965C13.7076 41.8888 13.4495 41.8767 13.1937 41.8366C12.623 41.7147 12.2775 41.288 12.2389 40.5604C12.2004 39.8328 12.4749 39.3338 13.0426 39.1395C13.3154 39.0556 13.596 39.0172 13.8771 39.0252C19.6956 39.0252 25.514 39.0252 31.3325 39.0252C31.5877 39.0186 31.8426 39.0505 32.0914 39.1205C32.6977 39.3109 32.9876 39.8404 32.9352 40.5985C32.8843 41.3147 32.5341 41.7413 31.9526 41.8423C31.6964 41.8745 31.4387 41.8847 31.1813 41.8727H22.577Z" fill="#333333"/>
<path d="M22.6004 45.6945C25.4995 45.6945 28.3982 45.6945 31.2963 45.6945C31.5542 45.6758 31.813 45.6911 32.0682 45.7401C32.6023 45.8847 33.0114 46.347 32.9311 46.988C32.8679 47.4921 32.5437 48.0248 32.2164 48.3729C32.0095 48.5936 31.5804 48.5346 31.2515 48.5346C25.48 48.5447 19.7079 48.5447 13.9353 48.5346C13.8072 48.5346 13.679 48.5346 13.5509 48.5346C12.7034 48.4775 12.2218 47.9411 12.2356 47.0717C12.2495 46.2024 12.7312 45.6964 13.6003 45.6926C16.5983 45.6888 19.5993 45.6945 22.6004 45.6945Z" fill="#333333"/>
<path d="M22.6118 55.1988C19.7407 55.1988 16.8696 55.1988 13.9985 55.1988C13.6884 55.2152 13.3779 55.1884 13.0727 55.1189C12.83 55.0636 12.6116 54.902 12.4579 54.6638C12.3042 54.4256 12.2255 54.1268 12.2363 53.8227C12.2194 53.1375 12.4879 52.6597 13.0079 52.4713C13.306 52.3809 13.6129 52.3418 13.9198 52.3552C19.6878 52.3476 25.4562 52.3476 31.2252 52.3552C31.5067 52.3516 31.7878 52.3815 32.0646 52.4447C32.6556 52.5855 32.9488 53.0937 32.9411 53.7941C32.9334 54.5403 32.6124 55.0637 31.9767 55.1474C31.5149 55.196 31.0513 55.2138 30.5879 55.2007C27.9369 55.202 25.2783 55.2014 22.6118 55.1988Z" fill="#333333"/>
</svg>
